M48
METRIC,LZ,000.000
;FILE_FORMAT=3:3
;TYPE=PLATED
;Layer: PTH_Through
;EasyEDA v6.5.48, 2025-02-15 11:51:11
;2cfd3feb97a147399bdab27a3ee501b3,839f2ca7e4414f50b7487098226930c6,10
;Gerber Generator version 0.2
;Holesize 1 = 0.306 mm
T01C0.306
;Holesize 2 = 0.798 mm
T02C0.798
;Holesize 3 = 0.915 mm
T03C0.915
;Holesize 4 = 1.000 mm
T04C1.000
;Holesize 5 = 1.200 mm
T05C1.200
%
G05
G90
T01
X050799Y013210
X047057Y011758
T02
X062490Y003500
X060509Y003500
T03
X018064Y022238
X018064Y018682
X018064Y011570
X018064Y008014
X024782Y015256
X027015Y015353
X026660Y020787
X024547Y020646
X058000Y026600
X058000Y008800
X058000Y024000
X058000Y011300
X058000Y013800
X058000Y016400
X058000Y018900
X058000Y021500
T04
X056630Y004770
X056630Y002230
X054090Y004770
X054090Y002230
X051550Y004770
X051550Y002230
X049010Y004770
X049010Y002230
X046470Y004770
X046470Y002230
X043930Y004770
X043930Y002230
X041390Y004770
X041390Y002230
X038850Y004770
X038850Y002230
X036310Y004770
X036310Y002230
X033770Y004770
X033770Y002230
X031230Y004770
X031230Y002230
X028690Y004770
X028690Y002230
X026150Y004770
X026150Y002230
X023610Y004770
X023610Y002230
X021070Y004770
X021070Y002230
X018530Y004770
X018530Y002230
X015990Y004770
X015990Y002230
X013450Y004770
X013450Y002230
X010910Y004770
X010910Y002230
X008370Y004770
X008370Y002230
X021270Y028000
X018730Y028000
T05
X013250Y012250
X006750Y012250
X013250Y007750
X006750Y007750
X013250Y019750
X006750Y019750
X013250Y015250
X006750Y015250
X013250Y027250
X006750Y027250
X013250Y022750
X006750Y022750
M30
