G04 Layer: BottomSolderMaskLayer*
G04 EasyEDA v6.5.48, 2025-02-15 11:51:11*
G04 2cfd3feb97a147399bdab27a3ee501b3,839f2ca7e4414f50b7487098226930c6,10*
G04 Gerber Generator version 0.2*
G04 Scale: 100 percent, Rotated: No, Reflected: No *
G04 Dimensions in millimeters *
G04 leading zeros omitted , absolute positions ,4 integer and 5 decimal *
%FSLAX45Y45*%
%MOMM*%

%AMMACRO1*4,1,8,-0.8211,-0.8508,-0.8508,-0.8208,-0.8508,0.8211,-0.8211,0.8508,0.8208,0.8508,0.8508,0.8211,0.8508,-0.8208,0.8208,-0.8508,-0.8211,-0.8508,0*%
%AMMACRO2*4,1,8,-0.6205,-1.1303,-0.6502,-1.1003,-0.6502,1.1006,-0.6205,1.1303,0.6203,1.1303,0.6502,1.1006,0.6502,-1.1003,0.6203,-1.1303,-0.6205,-1.1303,0*%
%AMMACRO3*4,1,8,-0.921,-0.9507,-0.9507,-0.9207,-0.9507,0.921,-0.921,0.9507,0.9207,0.9507,0.9507,0.921,0.9507,-0.9207,0.9207,-0.9507,-0.921,-0.9507,0*%
%ADD10C,1.7016*%
%ADD11MACRO1*%
%ADD12MACRO2*%
%ADD13C,1.6256*%
%ADD14C,1.9016*%
%ADD15MACRO3*%
%ADD16C,1.7272*%

%LPD*%
D10*
G01*
X5663006Y476986D03*
G01*
X5663006Y222986D03*
G01*
X5409006Y476986D03*
G01*
X5409006Y222986D03*
G01*
X5155006Y476986D03*
G01*
X5155006Y222986D03*
G01*
X4901006Y476986D03*
G01*
X4901006Y222986D03*
G01*
X4647006Y476986D03*
G01*
X4647006Y222986D03*
G01*
X4393006Y476986D03*
G01*
X4393006Y222986D03*
G01*
X4139006Y476986D03*
G01*
X4139006Y222986D03*
G01*
X3885006Y476986D03*
G01*
X3885006Y222986D03*
G01*
X3631006Y476986D03*
G01*
X3631006Y222986D03*
G01*
X3377006Y476986D03*
G01*
X3377006Y222986D03*
G01*
X3123006Y476986D03*
G01*
X3123006Y222986D03*
G01*
X2869006Y476986D03*
G01*
X2869006Y222986D03*
G01*
X2615006Y476986D03*
G01*
X2615006Y222986D03*
G01*
X2361006Y476986D03*
G01*
X2361006Y222986D03*
G01*
X2107006Y476986D03*
G01*
X2107006Y222986D03*
G01*
X1853006Y476986D03*
G01*
X1853006Y222986D03*
G01*
X1599006Y476986D03*
G01*
X1599006Y222986D03*
G01*
X1345006Y476986D03*
G01*
X1345006Y222986D03*
G01*
X1091006Y476986D03*
G01*
X1091006Y222986D03*
G01*
X837006Y476986D03*
D11*
G01*
X836993Y222999D03*
D12*
G01*
X6249060Y349986D03*
G01*
X6050940Y349986D03*
D13*
G01*
X1806447Y2223770D03*
G01*
X1806447Y1868170D03*
G01*
X1806447Y1156970D03*
G01*
X1806447Y801370D03*
D14*
G01*
X2126995Y2799994D03*
D15*
G01*
X1872996Y2799994D03*
D14*
G01*
X1324990Y1224991D03*
G01*
X675004Y1224991D03*
G01*
X1324990Y775004D03*
G01*
X675004Y775004D03*
G01*
X1324990Y1974977D03*
G01*
X675004Y1974977D03*
G01*
X1324990Y1524990D03*
G01*
X675004Y1524990D03*
G01*
X1324990Y2724988D03*
G01*
X675004Y2724988D03*
G01*
X1324990Y2275001D03*
G01*
X675004Y2275001D03*
D13*
G01*
X2478201Y1525625D03*
G01*
X2701493Y1535328D03*
G01*
X2666009Y2078736D03*
G01*
X2454681Y2064638D03*
D16*
G01*
X5799988Y2659989D03*
G01*
X5799988Y879982D03*
G01*
X5799988Y2399969D03*
G01*
X5799988Y1129969D03*
G01*
X5799988Y1379981D03*
G01*
X5799988Y1639976D03*
G01*
X5799988Y1889988D03*
G01*
X5799988Y2149982D03*
M02*
