G04 Layer: BottomSilkscreenLayer*
G04 EasyEDA v6.5.48, 2025-02-15 11:51:11*
G04 2cfd3feb97a147399bdab27a3ee501b3,839f2ca7e4414f50b7487098226930c6,10*
G04 Gerber Generator version 0.2*
G04 Scale: 100 percent, Rotated: No, Reflected: No *
G04 Dimensions in millimeters *
G04 leading zeros omitted , absolute positions ,4 integer and 5 decimal *
%FSLAX45Y45*%
%MOMM*%

%ADD10C,0.1524*%
%ADD11C,0.2540*%

%LPD*%
G36*
X3159658Y3454196D02*
G01*
X3156813Y3452672D01*
X3157372Y3420922D01*
X3157372Y3377234D01*
X3153003Y3381705D01*
X3148330Y3385718D01*
X3143402Y3389274D01*
X3138271Y3392322D01*
X3132988Y3394760D01*
X3127603Y3396538D01*
X3122168Y3397656D01*
X3116681Y3398062D01*
X3110077Y3397504D01*
X3104286Y3395827D01*
X3099358Y3392881D01*
X3095294Y3388664D01*
X3092145Y3383127D01*
X3089859Y3376066D01*
X3088487Y3367532D01*
X3087979Y3357422D01*
X3087725Y3299002D01*
X3072231Y3296462D01*
X3072231Y3289604D01*
X3123336Y3289604D01*
X3123336Y3296462D01*
X3106775Y3299002D01*
X3106470Y3317849D01*
X3106318Y3357168D01*
X3106572Y3364128D01*
X3107436Y3369919D01*
X3108909Y3374593D01*
X3110941Y3378250D01*
X3113582Y3380943D01*
X3116783Y3382721D01*
X3120644Y3383737D01*
X3125063Y3384092D01*
X3132632Y3383330D01*
X3140202Y3380892D01*
X3148177Y3376371D01*
X3156813Y3369360D01*
X3156559Y3299002D01*
X3141065Y3296462D01*
X3141065Y3289604D01*
X3192424Y3289604D01*
X3192424Y3296462D01*
X3175609Y3299002D01*
X3175152Y3327704D01*
X3175152Y3436416D01*
X3193440Y3438194D01*
X3193440Y3444798D01*
G37*
G36*
X3473297Y3450894D02*
G01*
X3467862Y3449929D01*
X3463340Y3447186D01*
X3460242Y3442970D01*
X3459124Y3437432D01*
X3460242Y3431794D01*
X3463340Y3427374D01*
X3467862Y3424478D01*
X3473297Y3423462D01*
X3479037Y3424478D01*
X3483610Y3427374D01*
X3486658Y3431794D01*
X3487775Y3437432D01*
X3486658Y3442970D01*
X3483610Y3447186D01*
X3479037Y3449929D01*
G37*
G36*
X2798927Y3442004D02*
G01*
X2788920Y3441446D01*
X2783636Y3440734D01*
X2778302Y3439668D01*
X2772918Y3438194D01*
X2767431Y3436315D01*
X2761996Y3433927D01*
X2756509Y3431082D01*
X2756052Y3398316D01*
X2768193Y3398316D01*
X2773781Y3426764D01*
X2779522Y3429254D01*
X2785211Y3430981D01*
X2790850Y3431997D01*
X2796438Y3432352D01*
X2802077Y3432048D01*
X2807614Y3431235D01*
X2812897Y3429863D01*
X2817977Y3427933D01*
X2822803Y3425444D01*
X2827375Y3422446D01*
X2831592Y3418941D01*
X2835503Y3414877D01*
X2839059Y3410305D01*
X2842209Y3405225D01*
X2844952Y3399637D01*
X2847238Y3393541D01*
X2849067Y3386937D01*
X2850438Y3379876D01*
X2851251Y3372307D01*
X2851556Y3364280D01*
X2851251Y3356152D01*
X2850489Y3348532D01*
X2849270Y3341370D01*
X2847543Y3334765D01*
X2845358Y3328670D01*
X2842768Y3323082D01*
X2839770Y3318001D01*
X2836367Y3313480D01*
X2832557Y3309467D01*
X2828442Y3305962D01*
X2823972Y3302965D01*
X2819146Y3300526D01*
X2814066Y3298647D01*
X2808681Y3297275D01*
X2803042Y3296462D01*
X2797200Y3296208D01*
X2790952Y3296462D01*
X2784551Y3297326D01*
X2778150Y3299002D01*
X2771800Y3301542D01*
X2766161Y3329736D01*
X2754020Y3329736D01*
X2754477Y3297224D01*
X2759710Y3294532D01*
X2764993Y3292297D01*
X2770378Y3290417D01*
X2775864Y3288893D01*
X2781452Y3287725D01*
X2787192Y3286912D01*
X2793034Y3286455D01*
X2798927Y3286302D01*
X2805582Y3286506D01*
X2811983Y3287217D01*
X2818130Y3288385D01*
X2824073Y3289960D01*
X2829712Y3291941D01*
X2835097Y3294329D01*
X2840177Y3297174D01*
X2844952Y3300374D01*
X2849372Y3303930D01*
X2853537Y3307842D01*
X2857347Y3312109D01*
X2860802Y3316732D01*
X2863900Y3321659D01*
X2866593Y3326942D01*
X2868930Y3332479D01*
X2870860Y3338322D01*
X2872384Y3344418D01*
X2873502Y3350768D01*
X2874162Y3357422D01*
X2874365Y3364280D01*
X2874162Y3370986D01*
X2873451Y3377488D01*
X2872282Y3383787D01*
X2870708Y3389833D01*
X2868726Y3395573D01*
X2866288Y3401110D01*
X2863494Y3406343D01*
X2860344Y3411270D01*
X2856839Y3415893D01*
X2852978Y3420160D01*
X2848762Y3424123D01*
X2844292Y3427729D01*
X2839466Y3430930D01*
X2834386Y3433775D01*
X2829052Y3436264D01*
X2823464Y3438296D01*
X2817672Y3439871D01*
X2811627Y3441039D01*
X2805379Y3441750D01*
G37*
G36*
X4666640Y3441496D02*
G01*
X4660341Y3441192D01*
X4654499Y3440328D01*
X4649114Y3438906D01*
X4644186Y3436924D01*
X4639716Y3434435D01*
X4635804Y3431489D01*
X4632452Y3428136D01*
X4629607Y3424275D01*
X4627372Y3420059D01*
X4625797Y3415436D01*
X4624781Y3410458D01*
X4624425Y3405174D01*
X4624984Y3398926D01*
X4626508Y3393084D01*
X4629048Y3387648D01*
X4632604Y3382670D01*
X4637074Y3378200D01*
X4642459Y3374288D01*
X4648758Y3370986D01*
X4655972Y3368344D01*
X4650028Y3366973D01*
X4644644Y3365246D01*
X4639818Y3363061D01*
X4635550Y3360572D01*
X4631791Y3357676D01*
X4628591Y3354476D01*
X4625898Y3350920D01*
X4623714Y3347059D01*
X4622038Y3342944D01*
X4620818Y3338525D01*
X4620107Y3333851D01*
X4619904Y3328974D01*
X4620310Y3323031D01*
X4621479Y3317392D01*
X4623460Y3312109D01*
X4626203Y3307181D01*
X4629556Y3302711D01*
X4633620Y3298748D01*
X4638294Y3295243D01*
X4643526Y3292297D01*
X4649368Y3289960D01*
X4655667Y3288233D01*
X4662424Y3287166D01*
X4669688Y3286810D01*
X4677664Y3287268D01*
X4685080Y3288588D01*
X4691786Y3290874D01*
X4697780Y3294176D01*
X4702860Y3298444D01*
X4707077Y3303727D01*
X4710226Y3310077D01*
X4712309Y3317544D01*
X4710226Y3320796D01*
X4707737Y3322980D01*
X4704791Y3324250D01*
X4701438Y3324656D01*
X4697018Y3323793D01*
X4693818Y3321202D01*
X4691329Y3316732D01*
X4689195Y3310178D01*
X4685690Y3296970D01*
X4678984Y3295599D01*
X4672736Y3295192D01*
X4665167Y3295853D01*
X4658461Y3297732D01*
X4652721Y3300729D01*
X4647946Y3304794D01*
X4644186Y3309823D01*
X4641443Y3315665D01*
X4639767Y3322218D01*
X4639208Y3329482D01*
X4639716Y3336848D01*
X4641342Y3343452D01*
X4644085Y3349193D01*
X4647895Y3354070D01*
X4652772Y3357981D01*
X4658664Y3360877D01*
X4665675Y3362655D01*
X4673752Y3363264D01*
X4684420Y3363264D01*
X4684420Y3373170D01*
X4675784Y3373170D01*
X4668621Y3373678D01*
X4662220Y3375202D01*
X4656632Y3377742D01*
X4651959Y3381248D01*
X4648250Y3385616D01*
X4645507Y3390950D01*
X4643831Y3397148D01*
X4643272Y3404158D01*
X4643729Y3410712D01*
X4645101Y3416452D01*
X4647387Y3421379D01*
X4650486Y3425444D01*
X4654397Y3428644D01*
X4659122Y3430981D01*
X4664557Y3432352D01*
X4670704Y3432860D01*
X4675784Y3432606D01*
X4681575Y3431590D01*
X4685131Y3418636D01*
X4687214Y3412642D01*
X4689805Y3408476D01*
X4693208Y3405987D01*
X4697831Y3405174D01*
X4701133Y3405581D01*
X4704029Y3406901D01*
X4706416Y3409340D01*
X4708245Y3413048D01*
X4706162Y3419805D01*
X4702911Y3425647D01*
X4698644Y3430524D01*
X4693513Y3434486D01*
X4687671Y3437585D01*
X4681118Y3439769D01*
X4674057Y3441039D01*
G37*
G36*
X4555845Y3441496D02*
G01*
X4549038Y3441141D01*
X4542840Y3440176D01*
X4537252Y3438601D01*
X4532325Y3436416D01*
X4528007Y3433673D01*
X4524298Y3430473D01*
X4521149Y3426764D01*
X4518660Y3422599D01*
X4516678Y3418027D01*
X4515307Y3413048D01*
X4514494Y3407765D01*
X4514240Y3402126D01*
X4514443Y3397402D01*
X4515205Y3392779D01*
X4516526Y3388207D01*
X4518406Y3383534D01*
X4520946Y3378758D01*
X4524095Y3373780D01*
X4527956Y3368446D01*
X4532528Y3362655D01*
X4544060Y3349599D01*
X4558893Y3333800D01*
X4585309Y3306876D01*
X4508093Y3306876D01*
X4508093Y3289604D01*
X4599584Y3289604D01*
X4599584Y3303320D01*
X4565802Y3341674D01*
X4555845Y3353409D01*
X4547768Y3364077D01*
X4541570Y3373932D01*
X4539183Y3378657D01*
X4537202Y3383279D01*
X4535678Y3387750D01*
X4534611Y3392220D01*
X4534001Y3396640D01*
X4533747Y3401110D01*
X4534255Y3407918D01*
X4535678Y3414115D01*
X4538014Y3419500D01*
X4541164Y3424123D01*
X4545076Y3427831D01*
X4549749Y3430574D01*
X4555032Y3432251D01*
X4560925Y3432860D01*
X4566462Y3432454D01*
X4573168Y3431336D01*
X4577486Y3415080D01*
X4579772Y3408578D01*
X4582515Y3404260D01*
X4585766Y3401872D01*
X4589627Y3401110D01*
X4593082Y3401618D01*
X4596079Y3402990D01*
X4598568Y3405174D01*
X4600600Y3407968D01*
X4599482Y3413302D01*
X4597755Y3418179D01*
X4595418Y3422599D01*
X4592523Y3426561D01*
X4589170Y3430066D01*
X4585360Y3433114D01*
X4581144Y3435654D01*
X4576622Y3437737D01*
X4571746Y3439414D01*
X4566666Y3440531D01*
X4561332Y3441242D01*
G37*
G36*
X4442815Y3441496D02*
G01*
X4438446Y3441242D01*
X4434128Y3440480D01*
X4429861Y3439210D01*
X4425696Y3437382D01*
X4421682Y3434994D01*
X4417872Y3432048D01*
X4414215Y3428441D01*
X4410811Y3424224D01*
X4407712Y3419398D01*
X4404918Y3413861D01*
X4402429Y3407613D01*
X4400346Y3400653D01*
X4398670Y3392982D01*
X4397400Y3384550D01*
X4396638Y3375304D01*
X4396384Y3365296D01*
X4416450Y3365296D01*
X4416704Y3377793D01*
X4417415Y3388766D01*
X4418634Y3398316D01*
X4420209Y3406444D01*
X4422190Y3413302D01*
X4424476Y3418941D01*
X4427067Y3423462D01*
X4429912Y3427018D01*
X4432909Y3429558D01*
X4436110Y3431336D01*
X4439462Y3432301D01*
X4442815Y3432606D01*
X4446371Y3432301D01*
X4449775Y3431336D01*
X4453077Y3429558D01*
X4456226Y3427018D01*
X4459122Y3423462D01*
X4461764Y3418941D01*
X4464100Y3413302D01*
X4466132Y3406444D01*
X4467758Y3398316D01*
X4468977Y3388766D01*
X4469739Y3377793D01*
X4469993Y3365296D01*
X4469892Y3355340D01*
X4469434Y3346297D01*
X4468723Y3338169D01*
X4467758Y3330854D01*
X4466590Y3324351D01*
X4465167Y3318662D01*
X4463542Y3313684D01*
X4461764Y3309365D01*
X4459782Y3305708D01*
X4457700Y3302711D01*
X4455464Y3300222D01*
X4453077Y3298291D01*
X4450638Y3296869D01*
X4448098Y3295904D01*
X4445508Y3295345D01*
X4442815Y3295192D01*
X4439462Y3295497D01*
X4436110Y3296513D01*
X4432909Y3298342D01*
X4429912Y3301034D01*
X4427067Y3304743D01*
X4424476Y3309467D01*
X4422190Y3315360D01*
X4420209Y3322523D01*
X4418634Y3330956D01*
X4417415Y3340862D01*
X4416704Y3352292D01*
X4416450Y3365296D01*
X4396384Y3365296D01*
X4396638Y3354882D01*
X4397400Y3345332D01*
X4398670Y3336645D01*
X4400346Y3328720D01*
X4402429Y3321507D01*
X4404918Y3315106D01*
X4407712Y3309416D01*
X4410862Y3304438D01*
X4414215Y3300120D01*
X4417872Y3296412D01*
X4421682Y3293364D01*
X4425696Y3290976D01*
X4429861Y3289096D01*
X4434128Y3287826D01*
X4438446Y3287064D01*
X4442815Y3286810D01*
X4447286Y3287064D01*
X4451705Y3287826D01*
X4456023Y3289096D01*
X4460240Y3290976D01*
X4464304Y3293364D01*
X4468215Y3296412D01*
X4471873Y3300120D01*
X4475276Y3304438D01*
X4478426Y3309416D01*
X4481271Y3315106D01*
X4483760Y3321507D01*
X4485843Y3328720D01*
X4487519Y3336645D01*
X4488789Y3345332D01*
X4489551Y3354882D01*
X4489856Y3365296D01*
X4489551Y3375304D01*
X4488789Y3384550D01*
X4487519Y3392982D01*
X4485843Y3400653D01*
X4483760Y3407613D01*
X4481271Y3413861D01*
X4478426Y3419398D01*
X4475276Y3424224D01*
X4471873Y3428441D01*
X4468215Y3432048D01*
X4464304Y3434994D01*
X4460240Y3437382D01*
X4456023Y3439210D01*
X4451705Y3440480D01*
X4447286Y3441242D01*
G37*
G36*
X4129379Y3441496D02*
G01*
X4122572Y3441141D01*
X4116374Y3440176D01*
X4110837Y3438601D01*
X4105910Y3436416D01*
X4101642Y3433673D01*
X4097934Y3430473D01*
X4094835Y3426764D01*
X4092346Y3422599D01*
X4090415Y3418027D01*
X4089095Y3413048D01*
X4088282Y3407765D01*
X4087977Y3402126D01*
X4088231Y3397402D01*
X4088993Y3392779D01*
X4090314Y3388207D01*
X4092194Y3383534D01*
X4094734Y3378758D01*
X4097883Y3373780D01*
X4101744Y3368446D01*
X4106316Y3362655D01*
X4117848Y3349599D01*
X4132681Y3333800D01*
X4158843Y3306876D01*
X4081627Y3306876D01*
X4081627Y3289604D01*
X4173118Y3289604D01*
X4173118Y3303320D01*
X4139336Y3341674D01*
X4129481Y3353409D01*
X4121505Y3364077D01*
X4118203Y3369106D01*
X4115358Y3373932D01*
X4112920Y3378657D01*
X4110990Y3383279D01*
X4109465Y3387750D01*
X4108399Y3392220D01*
X4107789Y3396640D01*
X4107586Y3401110D01*
X4108043Y3407918D01*
X4109465Y3414115D01*
X4111751Y3419500D01*
X4114850Y3424123D01*
X4118762Y3427831D01*
X4123436Y3430574D01*
X4128770Y3432251D01*
X4134713Y3432860D01*
X4140250Y3432454D01*
X4146702Y3431336D01*
X4151274Y3415080D01*
X4153408Y3408578D01*
X4156100Y3404260D01*
X4159453Y3401872D01*
X4163415Y3401110D01*
X4166717Y3401618D01*
X4169613Y3402990D01*
X4172102Y3405174D01*
X4174134Y3407968D01*
X4173016Y3413302D01*
X4171289Y3418179D01*
X4168952Y3422599D01*
X4166057Y3426561D01*
X4162704Y3430066D01*
X4158894Y3433114D01*
X4154678Y3435654D01*
X4150156Y3437737D01*
X4145279Y3439414D01*
X4140200Y3440531D01*
X4134865Y3441242D01*
G37*
G36*
X3904843Y3441496D02*
G01*
X3900474Y3441242D01*
X3896156Y3440480D01*
X3891940Y3439210D01*
X3887774Y3437382D01*
X3883812Y3434994D01*
X3879951Y3432048D01*
X3876344Y3428441D01*
X3872992Y3424224D01*
X3869893Y3419398D01*
X3867099Y3413861D01*
X3864660Y3407613D01*
X3862578Y3400653D01*
X3860901Y3392982D01*
X3859682Y3384550D01*
X3858920Y3375304D01*
X3858615Y3365296D01*
X3878427Y3365296D01*
X3878732Y3377793D01*
X3879494Y3388766D01*
X3880662Y3398316D01*
X3882288Y3406444D01*
X3884320Y3413302D01*
X3886606Y3418941D01*
X3889197Y3423462D01*
X3892042Y3427018D01*
X3895039Y3429558D01*
X3898239Y3431336D01*
X3901541Y3432301D01*
X3904843Y3432606D01*
X3908399Y3432301D01*
X3911803Y3431336D01*
X3915105Y3429558D01*
X3918254Y3427018D01*
X3921150Y3423462D01*
X3923792Y3418941D01*
X3926128Y3413302D01*
X3928160Y3406444D01*
X3929786Y3398316D01*
X3931005Y3388766D01*
X3931767Y3377793D01*
X3932072Y3365296D01*
X3931920Y3355340D01*
X3931462Y3346297D01*
X3930751Y3338169D01*
X3929786Y3330854D01*
X3928618Y3324351D01*
X3927195Y3318662D01*
X3925570Y3313684D01*
X3923792Y3309365D01*
X3921810Y3305708D01*
X3919728Y3302711D01*
X3917492Y3300222D01*
X3915105Y3298291D01*
X3912666Y3296869D01*
X3910126Y3295904D01*
X3907536Y3295345D01*
X3904843Y3295192D01*
X3901541Y3295497D01*
X3898239Y3296513D01*
X3895039Y3298342D01*
X3892042Y3301034D01*
X3889197Y3304743D01*
X3886606Y3309467D01*
X3884320Y3315360D01*
X3882288Y3322523D01*
X3880662Y3330956D01*
X3879494Y3340862D01*
X3878732Y3352292D01*
X3878427Y3365296D01*
X3858615Y3365296D01*
X3858920Y3354882D01*
X3859682Y3345332D01*
X3860901Y3336645D01*
X3862578Y3328720D01*
X3864660Y3321507D01*
X3867099Y3315106D01*
X3869893Y3309416D01*
X3872992Y3304438D01*
X3876344Y3300120D01*
X3879951Y3296412D01*
X3883812Y3293364D01*
X3887774Y3290976D01*
X3891940Y3289096D01*
X3896156Y3287826D01*
X3900474Y3287064D01*
X3904843Y3286810D01*
X3909364Y3287064D01*
X3913835Y3287826D01*
X3918153Y3289096D01*
X3922369Y3290976D01*
X3926484Y3293364D01*
X3930345Y3296412D01*
X3934002Y3300120D01*
X3937406Y3304438D01*
X3940556Y3309416D01*
X3943350Y3315106D01*
X3945839Y3321507D01*
X3947922Y3328720D01*
X3949598Y3336645D01*
X3950817Y3345332D01*
X3951579Y3354882D01*
X3951884Y3365296D01*
X3951579Y3375304D01*
X3950817Y3384550D01*
X3949598Y3392982D01*
X3947922Y3400653D01*
X3945839Y3407613D01*
X3943350Y3413861D01*
X3940556Y3419398D01*
X3937406Y3424224D01*
X3934002Y3428441D01*
X3930345Y3432048D01*
X3926484Y3434994D01*
X3922369Y3437382D01*
X3918153Y3439210D01*
X3913835Y3440480D01*
X3909364Y3441242D01*
G37*
G36*
X3742791Y3441496D02*
G01*
X3735984Y3441141D01*
X3729786Y3440176D01*
X3724249Y3438601D01*
X3719322Y3436416D01*
X3715054Y3433673D01*
X3711346Y3430473D01*
X3708247Y3426764D01*
X3705758Y3422599D01*
X3703828Y3418027D01*
X3702507Y3413048D01*
X3701694Y3407765D01*
X3701440Y3402126D01*
X3701643Y3397402D01*
X3702405Y3392779D01*
X3703675Y3388207D01*
X3705555Y3383534D01*
X3708044Y3378758D01*
X3711194Y3373780D01*
X3715054Y3368446D01*
X3719626Y3362655D01*
X3731158Y3349599D01*
X3757472Y3322015D01*
X3772306Y3306876D01*
X3695090Y3306876D01*
X3695090Y3289604D01*
X3786479Y3289604D01*
X3786479Y3303320D01*
X3752697Y3341674D01*
X3742791Y3353409D01*
X3734714Y3364077D01*
X3728516Y3373932D01*
X3726129Y3378657D01*
X3724148Y3383279D01*
X3722624Y3387750D01*
X3721557Y3392220D01*
X3720947Y3396640D01*
X3720693Y3401110D01*
X3721201Y3407918D01*
X3722624Y3414115D01*
X3724960Y3419500D01*
X3728161Y3424123D01*
X3732123Y3427831D01*
X3736797Y3430574D01*
X3742182Y3432251D01*
X3748125Y3432860D01*
X3753459Y3432454D01*
X3760063Y3431336D01*
X3764381Y3415080D01*
X3766718Y3408578D01*
X3769461Y3404260D01*
X3772712Y3401872D01*
X3776624Y3401110D01*
X3780028Y3401618D01*
X3783025Y3402990D01*
X3785514Y3405174D01*
X3787495Y3407968D01*
X3786428Y3413302D01*
X3784701Y3418179D01*
X3782364Y3422599D01*
X3779469Y3426561D01*
X3776116Y3430066D01*
X3772306Y3433114D01*
X3768090Y3435654D01*
X3763568Y3437737D01*
X3758692Y3439414D01*
X3753612Y3440531D01*
X3748278Y3441242D01*
G37*
G36*
X3988206Y3440734D02*
G01*
X3988206Y3419906D01*
X4006240Y3419906D01*
X4055211Y3349040D01*
X4006240Y3349040D01*
X4006240Y3419906D01*
X3988206Y3419906D01*
X3988206Y3349040D01*
X3964584Y3349040D01*
X3964584Y3335832D01*
X3988206Y3335832D01*
X3988206Y3289604D01*
X4006240Y3289604D01*
X4006240Y3335832D01*
X4066438Y3335832D01*
X4066438Y3346754D01*
X4000652Y3440734D01*
G37*
G36*
X3534765Y3440734D02*
G01*
X3534765Y3419906D01*
X3552545Y3419906D01*
X3601872Y3349040D01*
X3552545Y3349040D01*
X3552545Y3419906D01*
X3534765Y3419906D01*
X3534765Y3349040D01*
X3511143Y3349040D01*
X3511143Y3335832D01*
X3534765Y3335832D01*
X3534765Y3289604D01*
X3552545Y3289604D01*
X3552545Y3335832D01*
X3612997Y3335832D01*
X3612997Y3346754D01*
X3547008Y3440734D01*
G37*
G36*
X2940456Y3438448D02*
G01*
X2940456Y3430828D01*
X2961538Y3428542D01*
X2961741Y3399180D01*
X2961538Y3299256D01*
X2910179Y3299256D01*
X2902813Y3331514D01*
X2891434Y3331514D01*
X2892958Y3289604D01*
X3003397Y3289604D01*
X3003397Y3297224D01*
X2982620Y3299510D01*
X2982214Y3321659D01*
X2982061Y3369360D01*
X2982214Y3406597D01*
X2982620Y3428542D01*
X3003397Y3430828D01*
X3003397Y3438448D01*
G37*
G36*
X2669895Y3438448D02*
G01*
X2663494Y3438245D01*
X2657348Y3437636D01*
X2651404Y3436670D01*
X2645714Y3435299D01*
X2640279Y3433572D01*
X2635148Y3431438D01*
X2630271Y3428949D01*
X2625699Y3426053D01*
X2621381Y3422853D01*
X2617419Y3419246D01*
X2613812Y3415284D01*
X2610510Y3410965D01*
X2607564Y3406292D01*
X2604973Y3401263D01*
X2602738Y3395878D01*
X2600909Y3390188D01*
X2599436Y3384143D01*
X2598369Y3377742D01*
X2597759Y3371037D01*
X2597556Y3364026D01*
X2620670Y3364026D01*
X2620873Y3371850D01*
X2621534Y3379165D01*
X2622600Y3386023D01*
X2624124Y3392424D01*
X2626106Y3398316D01*
X2628442Y3403701D01*
X2631236Y3408578D01*
X2634386Y3412998D01*
X2637942Y3416909D01*
X2641904Y3420313D01*
X2646273Y3423208D01*
X2650947Y3425545D01*
X2656078Y3427425D01*
X2661513Y3428746D01*
X2667304Y3429508D01*
X2673502Y3429812D01*
X2692806Y3429812D01*
X2693212Y3399790D01*
X2693162Y3321253D01*
X2692806Y3298494D01*
X2675229Y3298494D01*
X2668778Y3298748D01*
X2662682Y3299612D01*
X2656992Y3300984D01*
X2651709Y3302914D01*
X2646832Y3305352D01*
X2642362Y3308299D01*
X2638298Y3311753D01*
X2634640Y3315715D01*
X2631389Y3320186D01*
X2628544Y3325063D01*
X2626156Y3330448D01*
X2624175Y3336290D01*
X2622651Y3342589D01*
X2621534Y3349294D01*
X2620873Y3356457D01*
X2620670Y3364026D01*
X2597556Y3364026D01*
X2597759Y3357016D01*
X2598470Y3350310D01*
X2599639Y3343960D01*
X2601214Y3337915D01*
X2603246Y3332226D01*
X2605633Y3326892D01*
X2608478Y3321862D01*
X2611628Y3317189D01*
X2615184Y3312871D01*
X2619095Y3308908D01*
X2623312Y3305301D01*
X2627884Y3302050D01*
X2632710Y3299155D01*
X2637891Y3296665D01*
X2643276Y3294481D01*
X2648966Y3292754D01*
X2654909Y3291382D01*
X2661056Y3290366D01*
X2667406Y3289808D01*
X2673959Y3289604D01*
X2734665Y3289604D01*
X2734665Y3297224D01*
X2713888Y3299510D01*
X2713634Y3329330D01*
X2713685Y3406444D01*
X2713888Y3428542D01*
X2734665Y3430828D01*
X2734665Y3438448D01*
G37*
G36*
X4229709Y3426764D02*
G01*
X4223359Y3420160D01*
X4279290Y3364280D01*
X4223613Y3308654D01*
X4229963Y3302304D01*
X4285640Y3357930D01*
X4341520Y3302304D01*
X4347870Y3308654D01*
X4292193Y3364280D01*
X4348124Y3420160D01*
X4341520Y3426764D01*
X4285640Y3370884D01*
G37*
G36*
X3356965Y3398062D02*
G01*
X3350310Y3397504D01*
X3344519Y3395776D01*
X3339642Y3392830D01*
X3335629Y3388614D01*
X3332530Y3383076D01*
X3330295Y3376066D01*
X3328974Y3367633D01*
X3328568Y3357676D01*
X3328517Y3327552D01*
X3328009Y3299002D01*
X3312261Y3296462D01*
X3312261Y3289604D01*
X3363620Y3289604D01*
X3363620Y3296462D01*
X3347059Y3299002D01*
X3346856Y3317849D01*
X3346856Y3357168D01*
X3347110Y3364077D01*
X3347872Y3369818D01*
X3349193Y3374491D01*
X3351123Y3378149D01*
X3353663Y3380841D01*
X3356813Y3382670D01*
X3360623Y3383737D01*
X3365093Y3384092D01*
X3372662Y3383229D01*
X3380181Y3380638D01*
X3388004Y3376066D01*
X3396386Y3369360D01*
X3396335Y3327704D01*
X3395827Y3299002D01*
X3380384Y3296462D01*
X3380384Y3289604D01*
X3431641Y3289604D01*
X3431641Y3296462D01*
X3415131Y3299002D01*
X3414877Y3336340D01*
X3415131Y3370681D01*
X3415436Y3377234D01*
X3433165Y3379012D01*
X3433165Y3385616D01*
X3401720Y3397808D01*
X3398672Y3395776D01*
X3396843Y3377488D01*
X3392424Y3382010D01*
X3387750Y3386074D01*
X3382822Y3389579D01*
X3377793Y3392525D01*
X3372612Y3394913D01*
X3367379Y3396640D01*
X3362198Y3397707D01*
G37*
G36*
X3244240Y3398062D02*
G01*
X3237077Y3397504D01*
X3230321Y3395929D01*
X3224123Y3393389D01*
X3218586Y3390036D01*
X3213811Y3385870D01*
X3209950Y3380994D01*
X3207105Y3375558D01*
X3205327Y3369614D01*
X3206648Y3366058D01*
X3208629Y3363518D01*
X3211423Y3361994D01*
X3214979Y3361486D01*
X3219704Y3362198D01*
X3223158Y3364280D01*
X3225546Y3367582D01*
X3226968Y3371900D01*
X3230981Y3387648D01*
X3237382Y3389122D01*
X3243224Y3389680D01*
X3248152Y3389325D01*
X3252774Y3388309D01*
X3257092Y3386582D01*
X3261055Y3384245D01*
X3264662Y3381248D01*
X3267811Y3377641D01*
X3270605Y3373475D01*
X3272942Y3368649D01*
X3274771Y3363315D01*
X3276142Y3357372D01*
X3276955Y3350920D01*
X3277209Y3343960D01*
X3276904Y3337102D01*
X3275990Y3330752D01*
X3274466Y3324961D01*
X3272434Y3319729D01*
X3269843Y3315055D01*
X3266795Y3310940D01*
X3263341Y3307435D01*
X3259429Y3304489D01*
X3255162Y3302254D01*
X3250539Y3300577D01*
X3245612Y3299561D01*
X3240379Y3299256D01*
X3235706Y3299510D01*
X3231184Y3300374D01*
X3226917Y3301746D01*
X3222802Y3303625D01*
X3218992Y3306013D01*
X3215487Y3308908D01*
X3212287Y3312210D01*
X3209391Y3316020D01*
X3204870Y3313988D01*
X3207664Y3307842D01*
X3211169Y3302457D01*
X3215335Y3297783D01*
X3220212Y3293922D01*
X3225749Y3290824D01*
X3231896Y3288639D01*
X3238754Y3287268D01*
X3246272Y3286810D01*
X3251758Y3287064D01*
X3256991Y3287776D01*
X3261969Y3288995D01*
X3266694Y3290671D01*
X3271113Y3292754D01*
X3275228Y3295345D01*
X3279038Y3298291D01*
X3282492Y3301695D01*
X3285591Y3305454D01*
X3288334Y3309620D01*
X3290722Y3314141D01*
X3292703Y3319068D01*
X3294227Y3324301D01*
X3295345Y3329838D01*
X3296056Y3335731D01*
X3296259Y3341928D01*
X3296005Y3348380D01*
X3295142Y3354476D01*
X3293821Y3360216D01*
X3291992Y3365601D01*
X3289706Y3370579D01*
X3286963Y3375202D01*
X3283864Y3379419D01*
X3280460Y3383229D01*
X3276701Y3386632D01*
X3272637Y3389579D01*
X3268319Y3392119D01*
X3263798Y3394252D01*
X3259124Y3395878D01*
X3254248Y3397097D01*
X3249269Y3397808D01*
G37*
G36*
X3466693Y3397808D02*
G01*
X3463645Y3395776D01*
X3463950Y3366312D01*
X3463645Y3299002D01*
X3448456Y3296462D01*
X3448456Y3289604D01*
X3499459Y3289604D01*
X3499459Y3296462D01*
X3482441Y3299002D01*
X3482136Y3318052D01*
X3481984Y3356508D01*
X3482695Y3377488D01*
X3500729Y3379266D01*
X3500729Y3385870D01*
G37*
G36*
X3652672Y3317036D02*
G01*
X3646627Y3315817D01*
X3641801Y3312515D01*
X3638550Y3307587D01*
X3637381Y3301542D01*
X3638550Y3295904D01*
X3641801Y3291230D01*
X3646627Y3287979D01*
X3652672Y3286810D01*
X3658412Y3287979D01*
X3663187Y3291230D01*
X3666439Y3295904D01*
X3667658Y3301542D01*
X3666439Y3307587D01*
X3663187Y3312515D01*
X3658412Y3315817D01*
G37*
G36*
X5324703Y2728772D02*
G01*
X5319776Y2728671D01*
X5314645Y2728264D01*
X5309412Y2727553D01*
X5304078Y2726486D01*
X5298694Y2725013D01*
X5293207Y2723134D01*
X5287772Y2720746D01*
X5282285Y2717850D01*
X5281777Y2685084D01*
X5293969Y2685084D01*
X5299557Y2713532D01*
X5305298Y2716022D01*
X5310987Y2717749D01*
X5316626Y2718816D01*
X5322163Y2719120D01*
X5327853Y2718866D01*
X5333390Y2718003D01*
X5338673Y2716631D01*
X5343753Y2714701D01*
X5348579Y2712262D01*
X5353151Y2709265D01*
X5357368Y2705709D01*
X5361279Y2701696D01*
X5364835Y2697124D01*
X5367985Y2692044D01*
X5370728Y2686456D01*
X5373014Y2680360D01*
X5374843Y2673756D01*
X5376214Y2666695D01*
X5377027Y2659126D01*
X5377281Y2651048D01*
X5377027Y2642920D01*
X5376265Y2635300D01*
X5375046Y2628188D01*
X5373319Y2621584D01*
X5371134Y2615488D01*
X5368544Y2609900D01*
X5365546Y2604820D01*
X5362143Y2600248D01*
X5358333Y2596235D01*
X5354218Y2592730D01*
X5349748Y2589784D01*
X5344922Y2587345D01*
X5339842Y2585466D01*
X5334457Y2584094D01*
X5328818Y2583281D01*
X5322925Y2582976D01*
X5316728Y2583230D01*
X5310327Y2584145D01*
X5303926Y2585770D01*
X5297525Y2588310D01*
X5291937Y2616504D01*
X5279745Y2616504D01*
X5280253Y2583992D01*
X5285486Y2581351D01*
X5290769Y2579065D01*
X5296154Y2577185D01*
X5301640Y2575712D01*
X5307228Y2574544D01*
X5312968Y2573731D01*
X5318760Y2573223D01*
X5324703Y2573070D01*
X5331358Y2573324D01*
X5337759Y2574036D01*
X5343906Y2575153D01*
X5349849Y2576728D01*
X5355488Y2578709D01*
X5360822Y2581148D01*
X5365902Y2583942D01*
X5370677Y2587142D01*
X5375148Y2590698D01*
X5379313Y2594660D01*
X5383123Y2598928D01*
X5386578Y2603550D01*
X5389626Y2608478D01*
X5392369Y2613710D01*
X5394706Y2619248D01*
X5396636Y2625090D01*
X5398160Y2631236D01*
X5399278Y2637586D01*
X5399938Y2644190D01*
X5400141Y2651048D01*
X5399938Y2657805D01*
X5399227Y2664307D01*
X5398058Y2670556D01*
X5396484Y2676601D01*
X5394502Y2682392D01*
X5392064Y2687878D01*
X5389270Y2693111D01*
X5386120Y2698038D01*
X5382615Y2702661D01*
X5378754Y2706979D01*
X5374538Y2710942D01*
X5370017Y2714548D01*
X5365242Y2717749D01*
X5360162Y2720594D01*
X5354828Y2723032D01*
X5349240Y2725064D01*
X5343448Y2726690D01*
X5337403Y2727858D01*
X5331155Y2728569D01*
G37*
G36*
X5183987Y2728772D02*
G01*
X5179161Y2728671D01*
X5174081Y2728264D01*
X5168900Y2727553D01*
X5163566Y2726486D01*
X5158130Y2725013D01*
X5152644Y2723134D01*
X5147106Y2720746D01*
X5141569Y2717850D01*
X5141061Y2685084D01*
X5153253Y2685084D01*
X5158841Y2713532D01*
X5164582Y2716022D01*
X5170271Y2717749D01*
X5176012Y2718816D01*
X5181701Y2719120D01*
X5187340Y2718866D01*
X5192826Y2718003D01*
X5198110Y2716631D01*
X5203139Y2714701D01*
X5207965Y2712262D01*
X5212486Y2709265D01*
X5216702Y2705709D01*
X5220563Y2701696D01*
X5224119Y2697124D01*
X5227269Y2692044D01*
X5230012Y2686456D01*
X5232298Y2680360D01*
X5234127Y2673756D01*
X5235498Y2666695D01*
X5236311Y2659126D01*
X5236565Y2651048D01*
X5236311Y2642920D01*
X5235549Y2635300D01*
X5234330Y2628188D01*
X5232603Y2621584D01*
X5230418Y2615488D01*
X5227828Y2609900D01*
X5224830Y2604820D01*
X5221427Y2600248D01*
X5217668Y2596235D01*
X5213553Y2592730D01*
X5209082Y2589784D01*
X5204307Y2587345D01*
X5199278Y2585466D01*
X5193944Y2584094D01*
X5188305Y2583281D01*
X5182463Y2582976D01*
X5176164Y2583230D01*
X5169763Y2584145D01*
X5163312Y2585770D01*
X5156809Y2588310D01*
X5151221Y2616504D01*
X5139029Y2616504D01*
X5139537Y2583992D01*
X5144770Y2581351D01*
X5150053Y2579065D01*
X5155488Y2577185D01*
X5161026Y2575712D01*
X5166664Y2574544D01*
X5172354Y2573731D01*
X5178145Y2573223D01*
X5183987Y2573070D01*
X5190642Y2573324D01*
X5197043Y2574036D01*
X5203240Y2575153D01*
X5209133Y2576728D01*
X5214823Y2578709D01*
X5220208Y2581148D01*
X5225288Y2583942D01*
X5230063Y2587142D01*
X5234533Y2590698D01*
X5238699Y2594660D01*
X5242509Y2598928D01*
X5246014Y2603550D01*
X5249113Y2608478D01*
X5251856Y2613710D01*
X5254193Y2619248D01*
X5256123Y2625090D01*
X5257698Y2631236D01*
X5258816Y2637586D01*
X5259476Y2644190D01*
X5259679Y2651048D01*
X5259476Y2657805D01*
X5258765Y2664307D01*
X5257596Y2670556D01*
X5256022Y2676601D01*
X5253990Y2682392D01*
X5251551Y2687878D01*
X5248757Y2693111D01*
X5245557Y2698038D01*
X5242001Y2702661D01*
X5238140Y2706979D01*
X5233924Y2710942D01*
X5229402Y2714548D01*
X5224627Y2717749D01*
X5219496Y2720594D01*
X5214162Y2723032D01*
X5208574Y2725064D01*
X5202732Y2726690D01*
X5196687Y2727858D01*
X5190439Y2728569D01*
G37*
G36*
X5402935Y2725216D02*
G01*
X5402935Y2717850D01*
X5422239Y2715056D01*
X5468975Y2574848D01*
X5478373Y2574848D01*
X5530189Y2715818D01*
X5547207Y2717596D01*
X5547207Y2725216D01*
X5486755Y2725216D01*
X5486755Y2716834D01*
X5508599Y2715056D01*
X5469483Y2603042D01*
X5433415Y2714802D01*
X5453989Y2716834D01*
X5453989Y2725216D01*
G37*
G36*
X5473395Y2484780D02*
G01*
X5466689Y2484628D01*
X5460339Y2484120D01*
X5454396Y2483256D01*
X5448808Y2482088D01*
X5443474Y2480564D01*
X5438444Y2478684D01*
X5433618Y2476449D01*
X5428945Y2473858D01*
X5428437Y2440838D01*
X5440629Y2440838D01*
X5445963Y2468524D01*
X5451957Y2471470D01*
X5458053Y2473553D01*
X5464454Y2474722D01*
X5471109Y2475128D01*
X5477002Y2474823D01*
X5482691Y2473960D01*
X5488076Y2472537D01*
X5493258Y2470556D01*
X5498084Y2468067D01*
X5502605Y2464968D01*
X5506821Y2461412D01*
X5510682Y2457297D01*
X5514136Y2452674D01*
X5517235Y2447594D01*
X5519877Y2442006D01*
X5522112Y2435910D01*
X5523890Y2429357D01*
X5525160Y2422398D01*
X5525973Y2414930D01*
X5526227Y2407056D01*
X5525973Y2399284D01*
X5525262Y2391867D01*
X5524042Y2384958D01*
X5522315Y2378405D01*
X5520182Y2372360D01*
X5517591Y2366772D01*
X5514594Y2361641D01*
X5511190Y2357018D01*
X5507380Y2352903D01*
X5503164Y2349296D01*
X5498592Y2346198D01*
X5493664Y2343607D01*
X5488381Y2341626D01*
X5482793Y2340152D01*
X5476849Y2339289D01*
X5470601Y2338984D01*
X5464098Y2339238D01*
X5457901Y2340000D01*
X5451805Y2341372D01*
X5445709Y2343302D01*
X5445963Y2393848D01*
X5469585Y2395626D01*
X5469585Y2403246D01*
X5411673Y2403246D01*
X5411673Y2395626D01*
X5425135Y2394356D01*
X5425490Y2373579D01*
X5425643Y2342032D01*
X5431434Y2339136D01*
X5437225Y2336596D01*
X5443016Y2334361D01*
X5448858Y2332532D01*
X5454853Y2331059D01*
X5461050Y2329942D01*
X5467451Y2329332D01*
X5474157Y2329078D01*
X5480761Y2329332D01*
X5487162Y2330043D01*
X5493258Y2331212D01*
X5499150Y2332786D01*
X5504789Y2334818D01*
X5510123Y2337308D01*
X5515203Y2340152D01*
X5519928Y2343353D01*
X5524398Y2346960D01*
X5528513Y2350922D01*
X5532323Y2355240D01*
X5535777Y2359863D01*
X5538825Y2364790D01*
X5541568Y2370074D01*
X5543905Y2375611D01*
X5545836Y2381402D01*
X5547360Y2387447D01*
X5548477Y2393746D01*
X5549138Y2400300D01*
X5549341Y2407056D01*
X5549138Y2413711D01*
X5548426Y2420162D01*
X5547309Y2426411D01*
X5545734Y2432405D01*
X5543753Y2438196D01*
X5541416Y2443683D01*
X5538622Y2448915D01*
X5535472Y2453843D01*
X5532018Y2458466D01*
X5528157Y2462784D01*
X5523941Y2466746D01*
X5519470Y2470353D01*
X5514644Y2473604D01*
X5509514Y2476500D01*
X5504129Y2478989D01*
X5498490Y2481021D01*
X5492546Y2482646D01*
X5486400Y2483815D01*
X5479999Y2484526D01*
G37*
G36*
X5253685Y2481224D02*
G01*
X5253685Y2473604D01*
X5272227Y2471064D01*
X5272481Y2330856D01*
X5280355Y2330856D01*
X5371287Y2455824D01*
X5370779Y2343048D01*
X5347157Y2340000D01*
X5347157Y2332380D01*
X5399735Y2332380D01*
X5399735Y2340000D01*
X5380939Y2342794D01*
X5380685Y2468778D01*
X5382717Y2471572D01*
X5398719Y2473604D01*
X5398719Y2481224D01*
X5364429Y2481224D01*
X5282133Y2367432D01*
X5282387Y2470810D01*
X5306263Y2473604D01*
X5306263Y2481224D01*
G37*
G36*
X5171897Y2481224D02*
G01*
X5165547Y2481021D01*
X5159400Y2480462D01*
X5153456Y2479446D01*
X5147818Y2478125D01*
X5142382Y2476347D01*
X5137251Y2474214D01*
X5132374Y2471724D01*
X5127752Y2468880D01*
X5123484Y2465628D01*
X5119522Y2462022D01*
X5115864Y2458059D01*
X5112562Y2453741D01*
X5109616Y2449068D01*
X5106974Y2444038D01*
X5104739Y2438704D01*
X5102910Y2432964D01*
X5101437Y2426919D01*
X5100370Y2420569D01*
X5099761Y2413863D01*
X5099507Y2406802D01*
X5122621Y2406802D01*
X5122875Y2414625D01*
X5123535Y2421940D01*
X5124653Y2428798D01*
X5126177Y2435199D01*
X5128158Y2441092D01*
X5130495Y2446477D01*
X5133289Y2451404D01*
X5136489Y2455824D01*
X5140045Y2459685D01*
X5144008Y2463088D01*
X5148376Y2465984D01*
X5153050Y2468372D01*
X5158130Y2470200D01*
X5163566Y2471521D01*
X5169357Y2472334D01*
X5175453Y2472588D01*
X5194757Y2472588D01*
X5195265Y2434996D01*
X5195062Y2356408D01*
X5194757Y2341270D01*
X5177485Y2341270D01*
X5171033Y2341575D01*
X5164937Y2342388D01*
X5159248Y2343759D01*
X5153914Y2345690D01*
X5149037Y2348128D01*
X5144516Y2351074D01*
X5140401Y2354580D01*
X5136743Y2358542D01*
X5133441Y2362962D01*
X5130596Y2367889D01*
X5128209Y2373274D01*
X5126228Y2379116D01*
X5124653Y2385364D01*
X5123535Y2392121D01*
X5122875Y2399233D01*
X5122621Y2406802D01*
X5099507Y2406802D01*
X5099761Y2399792D01*
X5100472Y2393137D01*
X5101640Y2386787D01*
X5103215Y2380742D01*
X5105247Y2375052D01*
X5107686Y2369667D01*
X5110480Y2364638D01*
X5113680Y2359964D01*
X5117287Y2355646D01*
X5121198Y2351684D01*
X5125415Y2348077D01*
X5129987Y2344826D01*
X5134813Y2341930D01*
X5139944Y2339441D01*
X5145379Y2337308D01*
X5151069Y2335530D01*
X5156962Y2334158D01*
X5163108Y2333193D01*
X5169458Y2332583D01*
X5175961Y2332380D01*
X5236667Y2332380D01*
X5236667Y2340000D01*
X5216093Y2342286D01*
X5215686Y2372156D01*
X5215636Y2434437D01*
X5216093Y2471318D01*
X5236667Y2473604D01*
X5236667Y2481224D01*
G37*
G36*
X5485333Y2227224D02*
G01*
X5478932Y2227021D01*
X5472785Y2226462D01*
X5466842Y2225446D01*
X5461152Y2224125D01*
X5455716Y2222347D01*
X5450535Y2220214D01*
X5445658Y2217724D01*
X5441086Y2214880D01*
X5436819Y2211628D01*
X5432856Y2208022D01*
X5429250Y2204059D01*
X5425948Y2199741D01*
X5423001Y2195068D01*
X5420360Y2190038D01*
X5418175Y2184704D01*
X5416296Y2178964D01*
X5414873Y2172919D01*
X5413806Y2166569D01*
X5413146Y2159863D01*
X5412943Y2152802D01*
X5436057Y2152802D01*
X5436311Y2160625D01*
X5436971Y2167940D01*
X5438038Y2174798D01*
X5439562Y2181199D01*
X5441543Y2187092D01*
X5443880Y2192477D01*
X5446623Y2197404D01*
X5449824Y2201824D01*
X5453380Y2205685D01*
X5457342Y2209088D01*
X5461660Y2211984D01*
X5466384Y2214372D01*
X5471464Y2216200D01*
X5476951Y2217521D01*
X5482742Y2218334D01*
X5488889Y2218588D01*
X5508193Y2218588D01*
X5508701Y2180996D01*
X5508498Y2102408D01*
X5508193Y2087270D01*
X5490667Y2087270D01*
X5484215Y2087575D01*
X5478119Y2088388D01*
X5472430Y2089759D01*
X5467146Y2091689D01*
X5462270Y2094128D01*
X5457748Y2097074D01*
X5453684Y2100580D01*
X5450027Y2104542D01*
X5446776Y2108962D01*
X5443982Y2113889D01*
X5441594Y2119274D01*
X5439613Y2125116D01*
X5438038Y2131364D01*
X5436971Y2138121D01*
X5436311Y2145233D01*
X5436057Y2152802D01*
X5412943Y2152802D01*
X5413197Y2145792D01*
X5413908Y2139137D01*
X5415026Y2132787D01*
X5416651Y2126742D01*
X5418632Y2121052D01*
X5421071Y2115667D01*
X5423865Y2110638D01*
X5427065Y2105964D01*
X5430621Y2101646D01*
X5434533Y2097684D01*
X5438749Y2094077D01*
X5443270Y2090826D01*
X5448147Y2087930D01*
X5453278Y2085441D01*
X5458714Y2083307D01*
X5464403Y2081530D01*
X5470296Y2080158D01*
X5476443Y2079193D01*
X5482844Y2078583D01*
X5489397Y2078380D01*
X5550103Y2078380D01*
X5550103Y2086000D01*
X5529275Y2088286D01*
X5529072Y2125878D01*
X5529072Y2195220D01*
X5529275Y2217318D01*
X5550103Y2219604D01*
X5550103Y2227224D01*
G37*
G36*
X5335981Y2227224D02*
G01*
X5335981Y2219604D01*
X5356555Y2217318D01*
X5356961Y2195423D01*
X5356961Y2110536D01*
X5356555Y2088540D01*
X5335981Y2086000D01*
X5335981Y2078380D01*
X5398465Y2078380D01*
X5398465Y2086000D01*
X5377637Y2088286D01*
X5377434Y2125014D01*
X5377434Y2195271D01*
X5377637Y2217318D01*
X5398465Y2219604D01*
X5398465Y2227224D01*
G37*
G36*
X5171389Y2227224D02*
G01*
X5171389Y2219604D01*
X5189931Y2217064D01*
X5190185Y2076856D01*
X5198059Y2076856D01*
X5288991Y2201824D01*
X5288483Y2089048D01*
X5264861Y2086000D01*
X5264861Y2078380D01*
X5317439Y2078380D01*
X5317439Y2086000D01*
X5298643Y2088794D01*
X5298389Y2214778D01*
X5300421Y2217572D01*
X5316423Y2219604D01*
X5316423Y2227224D01*
X5282133Y2227224D01*
X5199837Y2113432D01*
X5200091Y2216810D01*
X5223967Y2219604D01*
X5223967Y2227224D01*
G37*
G36*
X5473649Y1976780D02*
G01*
X5468772Y1976678D01*
X5463692Y1976272D01*
X5458460Y1975561D01*
X5453126Y1974494D01*
X5447690Y1973021D01*
X5442204Y1971090D01*
X5436717Y1968754D01*
X5431231Y1965858D01*
X5430723Y1933092D01*
X5442915Y1933092D01*
X5448503Y1961540D01*
X5454243Y1964029D01*
X5459933Y1965756D01*
X5465572Y1966823D01*
X5471109Y1967128D01*
X5476798Y1966874D01*
X5482336Y1966010D01*
X5487619Y1964639D01*
X5492699Y1962708D01*
X5497525Y1960270D01*
X5502046Y1957273D01*
X5506313Y1953717D01*
X5510225Y1949653D01*
X5513730Y1945081D01*
X5516880Y1940001D01*
X5519623Y1934413D01*
X5521960Y1928368D01*
X5523788Y1921764D01*
X5525109Y1914702D01*
X5525973Y1907133D01*
X5526227Y1899056D01*
X5525973Y1890928D01*
X5525211Y1883308D01*
X5523992Y1876196D01*
X5522264Y1869592D01*
X5520080Y1863445D01*
X5517489Y1857857D01*
X5514492Y1852828D01*
X5511088Y1848256D01*
X5507329Y1844243D01*
X5503214Y1840738D01*
X5498744Y1837791D01*
X5493969Y1835353D01*
X5488940Y1833422D01*
X5483555Y1832102D01*
X5477967Y1831289D01*
X5472125Y1830984D01*
X5465775Y1831238D01*
X5459323Y1832152D01*
X5452872Y1833778D01*
X5446471Y1836318D01*
X5440883Y1864512D01*
X5428691Y1864512D01*
X5429199Y1832000D01*
X5434431Y1829358D01*
X5439714Y1827072D01*
X5445150Y1825193D01*
X5450687Y1823669D01*
X5456275Y1822551D01*
X5462016Y1821738D01*
X5467807Y1821230D01*
X5473649Y1821078D01*
X5480304Y1821332D01*
X5486704Y1821992D01*
X5492902Y1823161D01*
X5498795Y1824736D01*
X5504434Y1826717D01*
X5509818Y1829155D01*
X5514949Y1831949D01*
X5519724Y1835150D01*
X5524195Y1838706D01*
X5528360Y1842668D01*
X5532170Y1846935D01*
X5535676Y1851558D01*
X5538774Y1856486D01*
X5541518Y1861718D01*
X5543854Y1867255D01*
X5545785Y1873097D01*
X5547360Y1879193D01*
X5548426Y1885594D01*
X5549138Y1892198D01*
X5549341Y1899056D01*
X5549138Y1905762D01*
X5548426Y1912264D01*
X5547258Y1918563D01*
X5545632Y1924608D01*
X5543651Y1930400D01*
X5541213Y1935886D01*
X5538419Y1941118D01*
X5535218Y1946046D01*
X5531662Y1950669D01*
X5527802Y1954987D01*
X5523585Y1958949D01*
X5519064Y1962505D01*
X5514238Y1965756D01*
X5509158Y1968601D01*
X5503824Y1971039D01*
X5498236Y1973072D01*
X5492394Y1974697D01*
X5486349Y1975815D01*
X5480100Y1976526D01*
G37*
G36*
X5346649Y1973224D02*
G01*
X5346649Y1965604D01*
X5367477Y1963318D01*
X5367985Y1926589D01*
X5367934Y1862734D01*
X5367477Y1834032D01*
X5316423Y1834032D01*
X5309057Y1866290D01*
X5297373Y1866290D01*
X5299151Y1824380D01*
X5409387Y1824380D01*
X5409387Y1832000D01*
X5388813Y1834286D01*
X5388356Y1871065D01*
X5388356Y1934006D01*
X5388813Y1963318D01*
X5409387Y1965604D01*
X5409387Y1973224D01*
G37*
G36*
X5147513Y1973224D02*
G01*
X5147513Y1965604D01*
X5168595Y1963064D01*
X5206441Y1917090D01*
X5160213Y1834032D01*
X5142941Y1832000D01*
X5142941Y1824380D01*
X5200091Y1824380D01*
X5200091Y1832000D01*
X5181549Y1834286D01*
X5218379Y1902612D01*
X5240477Y1875942D01*
X5240223Y1834540D01*
X5219141Y1832000D01*
X5219141Y1824380D01*
X5281371Y1824380D01*
X5281371Y1832000D01*
X5260797Y1834286D01*
X5260340Y1863648D01*
X5260340Y1926539D01*
X5260797Y1963318D01*
X5281371Y1965604D01*
X5281371Y1973224D01*
X5219141Y1973224D01*
X5219141Y1965604D01*
X5240223Y1963318D01*
X5240426Y1941423D01*
X5240477Y1888896D01*
X5180787Y1962556D01*
X5198567Y1965604D01*
X5198567Y1973224D01*
G37*
G36*
X5473649Y1722780D02*
G01*
X5468772Y1722678D01*
X5463692Y1722272D01*
X5458460Y1721561D01*
X5453126Y1720494D01*
X5447690Y1719021D01*
X5442204Y1717090D01*
X5436717Y1714754D01*
X5431231Y1711858D01*
X5430723Y1679092D01*
X5442915Y1679092D01*
X5448503Y1707540D01*
X5454243Y1710029D01*
X5459933Y1711756D01*
X5465572Y1712823D01*
X5471109Y1713128D01*
X5476798Y1712874D01*
X5482336Y1712010D01*
X5487619Y1710639D01*
X5492699Y1708708D01*
X5497525Y1706270D01*
X5502046Y1703273D01*
X5506313Y1699717D01*
X5510225Y1695653D01*
X5513730Y1691081D01*
X5516880Y1686001D01*
X5519623Y1680413D01*
X5521960Y1674368D01*
X5523788Y1667764D01*
X5525109Y1660702D01*
X5525973Y1653133D01*
X5526227Y1645056D01*
X5525973Y1636928D01*
X5525211Y1629308D01*
X5523992Y1622196D01*
X5522264Y1615592D01*
X5520080Y1609445D01*
X5517489Y1603857D01*
X5514492Y1598828D01*
X5511088Y1594256D01*
X5507329Y1590243D01*
X5503214Y1586738D01*
X5498744Y1583791D01*
X5493969Y1581353D01*
X5488940Y1579422D01*
X5483555Y1578102D01*
X5477967Y1577289D01*
X5472125Y1576984D01*
X5465775Y1577238D01*
X5459323Y1578152D01*
X5452872Y1579778D01*
X5446471Y1582318D01*
X5440883Y1610512D01*
X5428691Y1610512D01*
X5429199Y1578000D01*
X5434431Y1575358D01*
X5439714Y1573072D01*
X5445150Y1571193D01*
X5450687Y1569669D01*
X5456275Y1568551D01*
X5462016Y1567738D01*
X5467807Y1567230D01*
X5473649Y1567078D01*
X5480304Y1567332D01*
X5486704Y1567992D01*
X5492902Y1569161D01*
X5498795Y1570736D01*
X5504434Y1572717D01*
X5509818Y1575155D01*
X5514949Y1577949D01*
X5519724Y1581150D01*
X5524195Y1584706D01*
X5528360Y1588668D01*
X5532170Y1592935D01*
X5535676Y1597558D01*
X5538774Y1602486D01*
X5541518Y1607718D01*
X5543854Y1613255D01*
X5545785Y1619097D01*
X5547360Y1625193D01*
X5548426Y1631594D01*
X5549138Y1638198D01*
X5549341Y1645056D01*
X5549138Y1651762D01*
X5548426Y1658264D01*
X5547258Y1664563D01*
X5545632Y1670608D01*
X5543651Y1676400D01*
X5541213Y1681886D01*
X5538419Y1687118D01*
X5535218Y1692046D01*
X5531662Y1696669D01*
X5527802Y1700987D01*
X5523585Y1704949D01*
X5519064Y1708505D01*
X5514238Y1711756D01*
X5509158Y1714601D01*
X5503824Y1717039D01*
X5498236Y1719072D01*
X5492394Y1720697D01*
X5486349Y1721815D01*
X5480100Y1722526D01*
G37*
G36*
X5357571Y1722780D02*
G01*
X5352135Y1722577D01*
X5346954Y1721967D01*
X5342026Y1720951D01*
X5337403Y1719630D01*
X5332984Y1717903D01*
X5328818Y1715922D01*
X5324805Y1713636D01*
X5320995Y1711096D01*
X5322519Y1681886D01*
X5333949Y1681886D01*
X5339791Y1708556D01*
X5344007Y1710689D01*
X5348325Y1712112D01*
X5352897Y1712874D01*
X5357825Y1713128D01*
X5364276Y1712722D01*
X5370169Y1711452D01*
X5375452Y1709369D01*
X5379974Y1706422D01*
X5383733Y1702714D01*
X5386476Y1698243D01*
X5388203Y1692960D01*
X5388813Y1686966D01*
X5388406Y1681886D01*
X5387136Y1677365D01*
X5385104Y1673250D01*
X5382260Y1669542D01*
X5378653Y1666239D01*
X5374335Y1663242D01*
X5369356Y1660499D01*
X5347766Y1651507D01*
X5341467Y1648510D01*
X5335879Y1645412D01*
X5331053Y1642262D01*
X5326837Y1638909D01*
X5323332Y1635404D01*
X5320385Y1631746D01*
X5318099Y1627835D01*
X5316321Y1623669D01*
X5315102Y1619250D01*
X5314391Y1614525D01*
X5314137Y1609496D01*
X5314594Y1603095D01*
X5315915Y1597202D01*
X5317998Y1591716D01*
X5320893Y1586788D01*
X5324500Y1582318D01*
X5328767Y1578406D01*
X5333695Y1575003D01*
X5339232Y1572209D01*
X5345328Y1569974D01*
X5351932Y1568399D01*
X5358993Y1567434D01*
X5366461Y1567078D01*
X5372811Y1567332D01*
X5379008Y1568043D01*
X5385003Y1569110D01*
X5390743Y1570583D01*
X5396179Y1572361D01*
X5401208Y1574393D01*
X5405831Y1576628D01*
X5409895Y1579016D01*
X5408371Y1610258D01*
X5396941Y1610258D01*
X5391353Y1582318D01*
X5386070Y1579880D01*
X5380634Y1578254D01*
X5374741Y1577289D01*
X5367985Y1576984D01*
X5360263Y1577441D01*
X5353354Y1578762D01*
X5347258Y1580997D01*
X5342128Y1584096D01*
X5338013Y1588008D01*
X5334965Y1592732D01*
X5333085Y1598320D01*
X5332425Y1604670D01*
X5332831Y1609750D01*
X5334000Y1614220D01*
X5336032Y1618183D01*
X5338978Y1621739D01*
X5342839Y1624990D01*
X5347665Y1628038D01*
X5353507Y1630984D01*
X5374386Y1639874D01*
X5379618Y1642465D01*
X5384495Y1645208D01*
X5388965Y1648155D01*
X5393029Y1651355D01*
X5396585Y1654810D01*
X5399684Y1658518D01*
X5402326Y1662531D01*
X5404358Y1666849D01*
X5405882Y1671472D01*
X5406796Y1676501D01*
X5407101Y1681886D01*
X5406694Y1688134D01*
X5405424Y1693925D01*
X5403342Y1699209D01*
X5400548Y1704035D01*
X5397042Y1708302D01*
X5392928Y1712061D01*
X5388203Y1715262D01*
X5382971Y1717954D01*
X5377230Y1720037D01*
X5371033Y1721561D01*
X5364480Y1722475D01*
G37*
G36*
X5313629Y1468780D02*
G01*
X5308701Y1468678D01*
X5303570Y1468272D01*
X5298338Y1467561D01*
X5292953Y1466494D01*
X5287518Y1465021D01*
X5282031Y1463090D01*
X5276494Y1460754D01*
X5270957Y1457858D01*
X5270703Y1425092D01*
X5282895Y1425092D01*
X5288229Y1453540D01*
X5294071Y1456029D01*
X5299760Y1457756D01*
X5305399Y1458823D01*
X5311089Y1459128D01*
X5316778Y1458874D01*
X5322316Y1458010D01*
X5327599Y1456639D01*
X5332679Y1454708D01*
X5337505Y1452270D01*
X5342026Y1449273D01*
X5346293Y1445717D01*
X5350205Y1441653D01*
X5353710Y1437081D01*
X5356860Y1432001D01*
X5359603Y1426413D01*
X5361940Y1420368D01*
X5363768Y1413764D01*
X5365089Y1406702D01*
X5365953Y1399133D01*
X5366207Y1391056D01*
X5365953Y1382928D01*
X5365191Y1375308D01*
X5363921Y1368196D01*
X5362244Y1361592D01*
X5360060Y1355445D01*
X5357469Y1349857D01*
X5354472Y1344828D01*
X5351018Y1340256D01*
X5347258Y1336243D01*
X5343144Y1332738D01*
X5338673Y1329791D01*
X5333847Y1327353D01*
X5328767Y1325422D01*
X5323382Y1324102D01*
X5317744Y1323289D01*
X5311851Y1322984D01*
X5305552Y1323238D01*
X5299151Y1324152D01*
X5292699Y1325778D01*
X5286197Y1328318D01*
X5280863Y1356512D01*
X5268671Y1356512D01*
X5268925Y1324000D01*
X5274208Y1321358D01*
X5279542Y1319072D01*
X5284978Y1317193D01*
X5290515Y1315669D01*
X5296154Y1314551D01*
X5301894Y1313738D01*
X5307685Y1313230D01*
X5313629Y1313078D01*
X5320233Y1313332D01*
X5326634Y1313992D01*
X5332780Y1315161D01*
X5338673Y1316736D01*
X5344312Y1318717D01*
X5349646Y1321155D01*
X5354726Y1323949D01*
X5359501Y1327150D01*
X5363972Y1330706D01*
X5368137Y1334668D01*
X5371947Y1338935D01*
X5375402Y1343558D01*
X5378500Y1348486D01*
X5381244Y1353718D01*
X5383580Y1359255D01*
X5385511Y1365097D01*
X5387086Y1371193D01*
X5388152Y1377594D01*
X5388864Y1384198D01*
X5389067Y1391056D01*
X5388864Y1397762D01*
X5388152Y1404264D01*
X5386984Y1410563D01*
X5385409Y1416608D01*
X5383377Y1422400D01*
X5380990Y1427886D01*
X5378196Y1433118D01*
X5375046Y1438046D01*
X5371490Y1442669D01*
X5367629Y1446987D01*
X5363464Y1450949D01*
X5358942Y1454505D01*
X5354167Y1457756D01*
X5349087Y1460601D01*
X5343753Y1463040D01*
X5338165Y1465072D01*
X5332323Y1466697D01*
X5326329Y1467815D01*
X5320080Y1468526D01*
G37*
G36*
X5485333Y1465224D02*
G01*
X5478932Y1465021D01*
X5472785Y1464462D01*
X5466842Y1463446D01*
X5461152Y1462125D01*
X5455716Y1460347D01*
X5450535Y1458214D01*
X5445658Y1455724D01*
X5441086Y1452880D01*
X5436819Y1449628D01*
X5432856Y1446022D01*
X5429250Y1442059D01*
X5425948Y1437741D01*
X5423001Y1433068D01*
X5420360Y1428038D01*
X5418175Y1422704D01*
X5416296Y1416964D01*
X5414873Y1410919D01*
X5413806Y1404569D01*
X5413146Y1397863D01*
X5412943Y1390802D01*
X5436057Y1390802D01*
X5436311Y1398625D01*
X5436971Y1405940D01*
X5438038Y1412798D01*
X5439562Y1419199D01*
X5441543Y1425092D01*
X5443880Y1430477D01*
X5446623Y1435404D01*
X5449824Y1439824D01*
X5453380Y1443685D01*
X5457342Y1447088D01*
X5461660Y1449984D01*
X5466384Y1452372D01*
X5471464Y1454200D01*
X5476951Y1455521D01*
X5482742Y1456334D01*
X5488889Y1456588D01*
X5508193Y1456588D01*
X5508701Y1418996D01*
X5508498Y1340408D01*
X5508193Y1325270D01*
X5490667Y1325270D01*
X5484215Y1325575D01*
X5478119Y1326388D01*
X5472430Y1327759D01*
X5467146Y1329690D01*
X5462270Y1332128D01*
X5457748Y1335074D01*
X5453684Y1338580D01*
X5450027Y1342542D01*
X5446776Y1346962D01*
X5443982Y1351889D01*
X5441594Y1357274D01*
X5439613Y1363116D01*
X5438038Y1369364D01*
X5436971Y1376121D01*
X5436311Y1383233D01*
X5436057Y1390802D01*
X5412943Y1390802D01*
X5413197Y1383792D01*
X5413908Y1377137D01*
X5415026Y1370787D01*
X5416651Y1364742D01*
X5418632Y1359052D01*
X5421071Y1353667D01*
X5423865Y1348638D01*
X5427065Y1343964D01*
X5430621Y1339646D01*
X5434533Y1335684D01*
X5438749Y1332077D01*
X5443270Y1328826D01*
X5448147Y1325930D01*
X5453278Y1323441D01*
X5458714Y1321308D01*
X5464403Y1319530D01*
X5470296Y1318158D01*
X5476443Y1317193D01*
X5482844Y1316583D01*
X5489397Y1316380D01*
X5550103Y1316380D01*
X5550103Y1324000D01*
X5529275Y1326286D01*
X5529072Y1363878D01*
X5529072Y1433220D01*
X5529275Y1455318D01*
X5550103Y1457604D01*
X5550103Y1465224D01*
G37*
G36*
X5353253Y1240180D02*
G01*
X5347716Y1239977D01*
X5342483Y1239367D01*
X5337556Y1238351D01*
X5332882Y1237030D01*
X5328462Y1235303D01*
X5324348Y1233322D01*
X5320385Y1231036D01*
X5316677Y1228496D01*
X5317947Y1199286D01*
X5329631Y1199286D01*
X5335219Y1225956D01*
X5339537Y1228090D01*
X5343855Y1229512D01*
X5348376Y1230274D01*
X5353253Y1230528D01*
X5359806Y1230122D01*
X5365750Y1228852D01*
X5371084Y1226769D01*
X5375656Y1223822D01*
X5379364Y1220114D01*
X5382158Y1215644D01*
X5383885Y1210360D01*
X5384495Y1204366D01*
X5384088Y1199286D01*
X5382818Y1194765D01*
X5380786Y1190650D01*
X5377942Y1186942D01*
X5374335Y1183640D01*
X5370017Y1180642D01*
X5365038Y1177899D01*
X5359349Y1175410D01*
X5343245Y1168908D01*
X5336997Y1165910D01*
X5331460Y1162812D01*
X5326583Y1159662D01*
X5322417Y1156309D01*
X5318861Y1152804D01*
X5315915Y1149146D01*
X5313578Y1145235D01*
X5311800Y1141069D01*
X5310530Y1136650D01*
X5309819Y1131925D01*
X5309565Y1126896D01*
X5310022Y1120495D01*
X5311343Y1114602D01*
X5313426Y1109116D01*
X5316321Y1104188D01*
X5319928Y1099718D01*
X5324246Y1095806D01*
X5329174Y1092403D01*
X5334762Y1089609D01*
X5340858Y1087374D01*
X5347512Y1085799D01*
X5354624Y1084834D01*
X5362143Y1084478D01*
X5368391Y1084732D01*
X5374538Y1085443D01*
X5380482Y1086510D01*
X5386222Y1087983D01*
X5391607Y1089761D01*
X5396636Y1091793D01*
X5401259Y1094028D01*
X5405323Y1096416D01*
X5404053Y1127658D01*
X5392623Y1127658D01*
X5386781Y1099718D01*
X5381498Y1097280D01*
X5376062Y1095654D01*
X5370169Y1094689D01*
X5363413Y1094384D01*
X5355793Y1094841D01*
X5348884Y1096162D01*
X5342788Y1098397D01*
X5337657Y1101496D01*
X5333492Y1105408D01*
X5330444Y1110132D01*
X5328513Y1115720D01*
X5327853Y1122070D01*
X5328259Y1127150D01*
X5329428Y1131620D01*
X5331510Y1135583D01*
X5334457Y1139139D01*
X5338318Y1142390D01*
X5343194Y1145438D01*
X5349087Y1148384D01*
X5370068Y1157274D01*
X5375300Y1159865D01*
X5380177Y1162608D01*
X5384647Y1165555D01*
X5388711Y1168755D01*
X5392267Y1172210D01*
X5395366Y1175918D01*
X5398008Y1179931D01*
X5400040Y1184249D01*
X5401564Y1188872D01*
X5402478Y1193901D01*
X5402783Y1199286D01*
X5402376Y1205534D01*
X5401056Y1211326D01*
X5398973Y1216609D01*
X5396179Y1221435D01*
X5392674Y1225702D01*
X5388508Y1229461D01*
X5383784Y1232662D01*
X5378500Y1235354D01*
X5372811Y1237437D01*
X5366613Y1238961D01*
X5360111Y1239875D01*
G37*
G36*
X5487619Y1236624D02*
G01*
X5479491Y1236319D01*
X5471922Y1235456D01*
X5465013Y1234033D01*
X5458714Y1232052D01*
X5453126Y1229512D01*
X5448147Y1226464D01*
X5443931Y1222857D01*
X5440426Y1218793D01*
X5437682Y1214221D01*
X5435650Y1209192D01*
X5434431Y1203706D01*
X5434042Y1198016D01*
X5454853Y1198016D01*
X5455361Y1204772D01*
X5456885Y1210767D01*
X5459476Y1215898D01*
X5463133Y1220165D01*
X5467858Y1223518D01*
X5473750Y1226007D01*
X5480710Y1227480D01*
X5488889Y1227988D01*
X5508193Y1227988D01*
X5508650Y1198118D01*
X5508701Y1165758D01*
X5490413Y1165758D01*
X5482132Y1166368D01*
X5474919Y1168196D01*
X5468772Y1171092D01*
X5463794Y1174953D01*
X5459882Y1179677D01*
X5457088Y1185164D01*
X5455412Y1191310D01*
X5454853Y1198016D01*
X5434042Y1198016D01*
X5434279Y1193444D01*
X5435092Y1189177D01*
X5436412Y1185113D01*
X5438292Y1181201D01*
X5440629Y1177493D01*
X5443575Y1174038D01*
X5446979Y1170838D01*
X5450992Y1167942D01*
X5455462Y1165402D01*
X5460492Y1163269D01*
X5466029Y1161491D01*
X5472125Y1160170D01*
X5467197Y1158798D01*
X5462828Y1156919D01*
X5458968Y1154480D01*
X5455615Y1151432D01*
X5452618Y1147673D01*
X5450027Y1143254D01*
X5447741Y1138021D01*
X5445709Y1131976D01*
X5435295Y1097178D01*
X5418023Y1095400D01*
X5418023Y1087780D01*
X5421528Y1086764D01*
X5425490Y1086053D01*
X5429910Y1085646D01*
X5434787Y1085494D01*
X5443880Y1086256D01*
X5450382Y1088694D01*
X5454751Y1093114D01*
X5457393Y1099718D01*
X5466537Y1135024D01*
X5468416Y1141222D01*
X5470601Y1146251D01*
X5473242Y1150162D01*
X5476443Y1153058D01*
X5480253Y1155141D01*
X5484876Y1156462D01*
X5490362Y1157173D01*
X5496763Y1157376D01*
X5508701Y1157376D01*
X5508396Y1105103D01*
X5508193Y1097940D01*
X5487365Y1095400D01*
X5487365Y1087780D01*
X5550103Y1087780D01*
X5550103Y1095400D01*
X5529275Y1097686D01*
X5529072Y1134414D01*
X5529072Y1204671D01*
X5529275Y1226718D01*
X5550103Y1229004D01*
X5550103Y1236624D01*
G37*
G36*
X5174437Y1236624D02*
G01*
X5173167Y1197000D01*
X5183835Y1197000D01*
X5190185Y1226972D01*
X5225237Y1226972D01*
X5225491Y1197457D01*
X5225440Y1119936D01*
X5225237Y1097940D01*
X5202123Y1095400D01*
X5202123Y1087780D01*
X5269179Y1087780D01*
X5269179Y1095400D01*
X5246319Y1097940D01*
X5245862Y1134465D01*
X5245963Y1204874D01*
X5246319Y1226972D01*
X5281117Y1226972D01*
X5287213Y1197000D01*
X5298389Y1197000D01*
X5296611Y1236624D01*
G37*
G36*
X5486349Y957224D02*
G01*
X5478780Y956919D01*
X5471820Y956005D01*
X5465470Y954582D01*
X5459780Y952550D01*
X5454700Y950061D01*
X5450281Y947115D01*
X5446522Y943711D01*
X5443423Y939901D01*
X5440984Y935685D01*
X5439257Y931164D01*
X5438190Y926287D01*
X5437902Y920394D01*
X5457901Y920394D01*
X5458460Y927303D01*
X5460034Y933145D01*
X5462676Y938021D01*
X5466435Y941933D01*
X5471261Y944880D01*
X5477205Y946962D01*
X5484266Y948182D01*
X5492445Y948588D01*
X5508193Y948588D01*
X5508701Y912215D01*
X5508701Y890168D01*
X5496763Y890168D01*
X5487466Y890625D01*
X5479440Y891946D01*
X5472734Y894232D01*
X5467350Y897483D01*
X5463184Y901700D01*
X5460238Y906881D01*
X5458510Y913130D01*
X5457901Y920394D01*
X5437902Y920394D01*
X5438343Y915416D01*
X5439816Y909878D01*
X5442407Y904595D01*
X5446064Y899718D01*
X5450941Y895350D01*
X5457037Y891540D01*
X5464403Y888441D01*
X5473141Y886104D01*
X5465978Y884885D01*
X5459476Y883208D01*
X5453735Y881176D01*
X5448655Y878738D01*
X5444236Y875995D01*
X5440476Y872896D01*
X5437327Y869543D01*
X5434838Y865886D01*
X5432907Y861974D01*
X5431536Y857859D01*
X5430723Y853541D01*
X5430482Y848766D01*
X5451551Y848766D01*
X5451856Y853897D01*
X5452719Y858570D01*
X5454142Y862837D01*
X5456174Y866597D01*
X5458866Y870000D01*
X5462117Y872896D01*
X5466080Y875385D01*
X5470652Y877417D01*
X5475884Y878992D01*
X5481828Y880110D01*
X5488432Y880821D01*
X5495747Y881024D01*
X5508701Y881024D01*
X5508498Y832408D01*
X5508193Y817270D01*
X5493461Y817270D01*
X5486857Y817524D01*
X5480761Y818184D01*
X5475224Y819353D01*
X5470296Y820928D01*
X5465927Y822960D01*
X5462117Y825398D01*
X5458917Y828294D01*
X5456275Y831596D01*
X5454243Y835304D01*
X5452770Y839368D01*
X5451856Y843889D01*
X5451551Y848766D01*
X5430482Y848766D01*
X5430672Y845210D01*
X5431282Y841451D01*
X5432247Y837742D01*
X5433669Y834085D01*
X5435549Y830580D01*
X5437886Y827227D01*
X5440680Y824077D01*
X5443931Y821080D01*
X5447741Y818337D01*
X5452008Y815898D01*
X5456834Y813714D01*
X5462219Y811885D01*
X5468112Y810412D01*
X5474614Y809294D01*
X5481726Y808634D01*
X5489397Y808380D01*
X5550103Y808380D01*
X5550103Y816000D01*
X5529275Y818286D01*
X5529072Y855522D01*
X5529072Y925372D01*
X5529275Y947318D01*
X5550103Y949604D01*
X5550103Y957224D01*
G37*
G36*
X5353253Y957224D02*
G01*
X5353253Y949604D01*
X5374335Y947318D01*
X5374589Y917956D01*
X5374538Y839622D01*
X5374335Y818032D01*
X5323027Y818032D01*
X5315661Y850290D01*
X5304231Y850290D01*
X5305755Y808380D01*
X5416245Y808380D01*
X5416245Y816000D01*
X5395417Y818286D01*
X5394960Y855065D01*
X5395061Y925423D01*
X5395417Y947318D01*
X5416245Y949604D01*
X5416245Y957224D01*
G37*
D10*
X1616455Y1039621D02*
G01*
X1626870Y1050036D01*
X1642363Y1055115D01*
X1663192Y1055115D01*
X1678686Y1050036D01*
X1689100Y1039621D01*
X1689100Y1029207D01*
X1684020Y1018794D01*
X1678686Y1013460D01*
X1668271Y1008379D01*
X1637029Y997965D01*
X1626870Y992886D01*
X1621536Y987552D01*
X1616455Y977137D01*
X1616455Y961644D01*
X1626870Y951229D01*
X1642363Y946150D01*
X1663192Y946150D01*
X1678686Y951229D01*
X1689100Y961644D01*
X1582165Y1055115D02*
G01*
X1556004Y946150D01*
X1530095Y1055115D02*
G01*
X1556004Y946150D01*
X1530095Y1055115D02*
G01*
X1504187Y946150D01*
X1478279Y1055115D02*
G01*
X1504187Y946150D01*
X1443989Y1034287D02*
G01*
X1433576Y1039621D01*
X1417828Y1055115D01*
X1417828Y946150D01*
X1654555Y1788921D02*
G01*
X1664970Y1799336D01*
X1680463Y1804415D01*
X1701292Y1804415D01*
X1716786Y1799336D01*
X1727200Y1788921D01*
X1727200Y1778507D01*
X1722120Y1768094D01*
X1716786Y1762760D01*
X1706371Y1757679D01*
X1675129Y1747265D01*
X1664970Y1742186D01*
X1659636Y1736852D01*
X1654555Y1726437D01*
X1654555Y1710944D01*
X1664970Y1700529D01*
X1680463Y1695450D01*
X1701292Y1695450D01*
X1716786Y1700529D01*
X1727200Y1710944D01*
X1620265Y1804415D02*
G01*
X1594104Y1695450D01*
X1568195Y1804415D02*
G01*
X1594104Y1695450D01*
X1568195Y1804415D02*
G01*
X1542287Y1695450D01*
X1516379Y1804415D02*
G01*
X1542287Y1695450D01*
X1476755Y1778507D02*
G01*
X1476755Y1783587D01*
X1471676Y1794002D01*
X1466342Y1799336D01*
X1455928Y1804415D01*
X1435100Y1804415D01*
X1424939Y1799336D01*
X1419605Y1794002D01*
X1414526Y1783587D01*
X1414526Y1773173D01*
X1419605Y1762760D01*
X1430020Y1747265D01*
X1482089Y1695450D01*
X1409192Y1695450D01*
X1629155Y2512821D02*
G01*
X1639570Y2523236D01*
X1655063Y2528315D01*
X1675892Y2528315D01*
X1691386Y2523236D01*
X1701800Y2512821D01*
X1701800Y2502407D01*
X1696720Y2491994D01*
X1691386Y2486660D01*
X1680971Y2481579D01*
X1649729Y2471165D01*
X1639570Y2466086D01*
X1634236Y2460752D01*
X1629155Y2450337D01*
X1629155Y2434844D01*
X1639570Y2424429D01*
X1655063Y2419350D01*
X1675892Y2419350D01*
X1691386Y2424429D01*
X1701800Y2434844D01*
X1594865Y2528315D02*
G01*
X1568704Y2419350D01*
X1542795Y2528315D02*
G01*
X1568704Y2419350D01*
X1542795Y2528315D02*
G01*
X1516887Y2419350D01*
X1490979Y2528315D02*
G01*
X1516887Y2419350D01*
X1446276Y2528315D02*
G01*
X1389126Y2528315D01*
X1420113Y2486660D01*
X1404620Y2486660D01*
X1394205Y2481579D01*
X1389126Y2476500D01*
X1383792Y2460752D01*
X1383792Y2450337D01*
X1389126Y2434844D01*
X1399539Y2424429D01*
X1415034Y2419350D01*
X1430528Y2419350D01*
X1446276Y2424429D01*
X1451355Y2429510D01*
X1456689Y2439923D01*
X3104217Y1676714D02*
G01*
X3182185Y1678073D01*
X3197766Y1673265D01*
X3208360Y1663034D01*
X3213712Y1647377D01*
X3213895Y1636966D01*
X3209086Y1621386D01*
X3198855Y1610791D01*
X3183453Y1605442D01*
X3105485Y1604081D01*
X3126910Y1570159D02*
G01*
X3121759Y1559653D01*
X3106541Y1543639D01*
X3215490Y1545539D01*
X2994786Y4090708D02*
G01*
X2994786Y4012730D01*
X2989706Y3997236D01*
X2979293Y3986822D01*
X2963545Y3981742D01*
X2953131Y3981742D01*
X2937636Y3986822D01*
X2927222Y3997236D01*
X2922143Y4012730D01*
X2922143Y4090708D01*
X2882518Y4064800D02*
G01*
X2882518Y4069880D01*
X2877438Y4080294D01*
X2872104Y4085628D01*
X2861690Y4090708D01*
X2841116Y4090708D01*
X2830702Y4085628D01*
X2825368Y4080294D01*
X2820288Y4069880D01*
X2820288Y4059466D01*
X2825368Y4049052D01*
X2835783Y4033558D01*
X2887852Y3981742D01*
X2814954Y3981742D01*
D11*
X1240409Y1299997D02*
G01*
X759587Y1299997D01*
X699998Y1114689D02*
G01*
X699998Y885306D01*
X759587Y699998D02*
G01*
X1240409Y699998D01*
X1299997Y885306D02*
G01*
X1299997Y1114689D01*
X1240409Y2049995D02*
G01*
X759587Y2049995D01*
X699998Y1864687D02*
G01*
X699998Y1635305D01*
X759587Y1449997D02*
G01*
X1240409Y1449997D01*
X1299997Y1635305D02*
G01*
X1299997Y1864687D01*
X1240409Y2799994D02*
G01*
X759587Y2799994D01*
X699998Y2614686D02*
G01*
X699998Y2385303D01*
X759587Y2199995D02*
G01*
X1240409Y2199995D01*
X1299997Y2385303D02*
G01*
X1299997Y2614686D01*
X2504158Y1299822D02*
G01*
X2506309Y1231463D01*
X2654957Y1231419D01*
X2652809Y1299778D01*
X6499986Y3949992D02*
G01*
X-550037Y3949992D01*
X-550037Y-400011D01*
X6499986Y-400011D01*
X6499986Y3949992D01*
G75*
G01
X1180008Y999998D02*
G03X1180008Y999998I-180010J0D01*
G75*
G01
X864718Y1179982D02*
G03X864718Y1179982I-44729J0D01*
G75*
G01
X1224737Y1180008D02*
G03X1224737Y1180008I-44729J0D01*
G75*
G01
X1224737Y819988D02*
G03X1224737Y819988I-44729J0D01*
G75*
G01
X864718Y819988D02*
G03X864718Y819988I-44729J0D01*
G75*
G01
X1180008Y1749984D02*
G03X1180008Y1749984I-180010J0D01*
G75*
G01
X864718Y1929968D02*
G03X864718Y1929968I-44729J0D01*
G75*
G01
X1224737Y1929994D02*
G03X1224737Y1929994I-44729J0D01*
G75*
G01
X1224737Y1569974D02*
G03X1224737Y1569974I-44729J0D01*
G75*
G01
X864718Y1569974D02*
G03X864718Y1569974I-44729J0D01*
G75*
G01
X1180008Y2499995D02*
G03X1180008Y2499995I-180010J0D01*
G75*
G01
X864718Y2679979D02*
G03X864718Y2679979I-44729J0D01*
G75*
G01
X1224737Y2680005D02*
G03X1224737Y2680005I-44729J0D01*
G75*
G01
X1224737Y2319985D02*
G03X1224737Y2319985I-44729J0D01*
G75*
G01
X864718Y2319985D02*
G03X864718Y2319985I-44729J0D01*
G75*
G01
X3078074Y1799996D02*
G03X3078074Y1799996I-499999J0D01*
G75*
G01
X6399962Y3699967D02*
G03X6399962Y3699967I-149987J0D01*
G75*
G01
X6399987Y-150012D02*
G03X6399987Y-150012I-150012J0D01*
G75*
G01
X-150012Y-150012D02*
G03X-150012Y-150012I-150012J0D01*
G75*
G01
X-150012Y3699967D02*
G03X-150012Y3699967I-150012J0D01*
X3199993Y2999994D02*
G01*
X5599988Y2999994D01*
X5599988Y499998D01*
X3199993Y499998D01*
X3199993Y2999994D01*
M02*
