G04 Layer: TopLayer*
G04 EasyEDA v6.5.48, 2025-02-15 11:51:11*
G04 2cfd3feb97a147399bdab27a3ee501b3,839f2ca7e4414f50b7487098226930c6,10*
G04 Gerber Generator version 0.2*
G04 Scale: 100 percent, Rotated: No, Reflected: No *
G04 Dimensions in millimeters *
G04 leading zeros omitted , absolute positions ,4 integer and 5 decimal *
%FSLAX45Y45*%
%MOMM*%

%ADD10C,0.2540*%
%ADD11C,1.6000*%
%ADD12R,1.6000X1.6000*%
%ADD13R,1.1989X2.1590*%
%ADD14C,1.5240*%
%ADD15C,1.8000*%
%ADD16R,1.8000X1.8000*%
%ADD17C,0.6100*%

%LPD*%
D10*
X1806447Y1868180D02*
G01*
X4532756Y1868180D01*
X5079949Y1320987D01*
X1324990Y1974987D02*
G01*
X2390876Y1974987D01*
X2406141Y1959721D01*
X2546984Y1959721D01*
X2666009Y2078746D01*
X1324990Y1225001D02*
G01*
X1748612Y801380D01*
X1806447Y801380D01*
X5799988Y2399979D02*
G01*
X2987243Y2399979D01*
X2666009Y2078746D01*
X5799988Y2659999D02*
G01*
X3050031Y2659999D01*
X2454681Y2064649D01*
X1324990Y1525000D02*
G01*
X1916633Y1525000D01*
X2265857Y1175776D01*
X4705731Y1175776D01*
X1324990Y775014D02*
G01*
X1472158Y775014D01*
X1735531Y511642D01*
X1735531Y433562D01*
X1837893Y331200D01*
X1912670Y331200D01*
X1980006Y263865D01*
X1980006Y189367D01*
X2061845Y107528D01*
X5039537Y107528D01*
X5155006Y222996D01*
X2361006Y476996D02*
G01*
X2929788Y1045778D01*
X5715787Y1045778D01*
X5799988Y1129979D01*
X5799988Y879993D02*
G01*
X5393385Y879993D01*
X5009108Y495716D01*
X5009108Y422843D01*
X4936261Y349996D01*
X2234006Y349996D01*
X2107006Y222996D01*
X1806447Y1156980D02*
G01*
X1846249Y1117178D01*
X4959019Y1117178D01*
X5078907Y1237066D01*
X5850509Y1237066D01*
X6249060Y838514D01*
X6249060Y349996D01*
D11*
G01*
X5663006Y476986D03*
G01*
X5663006Y222986D03*
G01*
X5409006Y476986D03*
G01*
X5409006Y222986D03*
G01*
X5155006Y476986D03*
G01*
X5155006Y222986D03*
G01*
X4901006Y476986D03*
G01*
X4901006Y222986D03*
G01*
X4647006Y476986D03*
G01*
X4647006Y222986D03*
G01*
X4393006Y476986D03*
G01*
X4393006Y222986D03*
G01*
X4139006Y476986D03*
G01*
X4139006Y222986D03*
G01*
X3885006Y476986D03*
G01*
X3885006Y222986D03*
G01*
X3631006Y476986D03*
G01*
X3631006Y222986D03*
G01*
X3377006Y476986D03*
G01*
X3377006Y222986D03*
G01*
X3123006Y476986D03*
G01*
X3123006Y222986D03*
G01*
X2869006Y476986D03*
G01*
X2869006Y222986D03*
G01*
X2615006Y476986D03*
G01*
X2615006Y222986D03*
G01*
X2361006Y476986D03*
G01*
X2361006Y222986D03*
G01*
X2107006Y476986D03*
G01*
X2107006Y222986D03*
G01*
X1853006Y476986D03*
G01*
X1853006Y222986D03*
G01*
X1599006Y476986D03*
G01*
X1599006Y222986D03*
G01*
X1345006Y476986D03*
G01*
X1345006Y222986D03*
G01*
X1091006Y476986D03*
G01*
X1091006Y222986D03*
G01*
X837006Y476986D03*
D12*
G01*
X837006Y222986D03*
D13*
G01*
X6249060Y349986D03*
G01*
X6050940Y349986D03*
D14*
G01*
X1806447Y2223770D03*
G01*
X1806447Y1868170D03*
G01*
X1806447Y1156970D03*
G01*
X1806447Y801370D03*
D15*
G01*
X2126995Y2799994D03*
D16*
G01*
X1872995Y2799994D03*
D15*
G01*
X1324990Y1224991D03*
G01*
X675004Y1224991D03*
G01*
X1324990Y775004D03*
G01*
X675004Y775004D03*
G01*
X1324990Y1974977D03*
G01*
X675004Y1974977D03*
G01*
X1324990Y1524990D03*
G01*
X675004Y1524990D03*
G01*
X1324990Y2724988D03*
G01*
X675004Y2724988D03*
G01*
X1324990Y2275001D03*
G01*
X675004Y2275001D03*
D14*
G01*
X2478201Y1525625D03*
G01*
X2701493Y1535328D03*
G01*
X2666009Y2078736D03*
G01*
X2454681Y2064638D03*
G01*
X5799988Y2659989D03*
G01*
X5799988Y879982D03*
G01*
X5799988Y2399969D03*
G01*
X5799988Y1129969D03*
G01*
X5799988Y1379981D03*
G01*
X5799988Y1639976D03*
G01*
X5799988Y1889988D03*
G01*
X5799988Y2149982D03*
D17*
G01*
X5079949Y1320977D03*
G01*
X4705731Y1175765D03*
M02*
