G04 Layer: TopSilkscreenLayer*
G04 EasyEDA v6.5.48, 2025-02-15 11:51:11*
G04 2cfd3feb97a147399bdab27a3ee501b3,839f2ca7e4414f50b7487098226930c6,10*
G04 Gerber Generator version 0.2*
G04 Scale: 100 percent, Rotated: No, Reflected: No *
G04 Dimensions in millimeters *
G04 leading zeros omitted , absolute positions ,4 integer and 5 decimal *
%FSLAX45Y45*%
%MOMM*%

%ADD10C,0.1524*%
%ADD11C,0.2032*%
%ADD12C,0.2540*%
%ADD13C,0.1270*%

%LPD*%
D10*
X3224593Y744715D02*
G01*
X3224593Y635749D01*
X3224593Y744715D02*
G01*
X3271329Y744715D01*
X3286823Y739635D01*
X3292157Y734301D01*
X3297237Y723887D01*
X3297237Y708393D01*
X3292157Y697979D01*
X3286823Y692899D01*
X3271329Y687565D01*
X3224593Y687565D01*
X3331527Y723887D02*
G01*
X3341941Y729221D01*
X3357689Y744715D01*
X3357689Y635749D01*
X6235700Y621284D02*
G01*
X6235700Y699262D01*
X6230620Y714755D01*
X6220206Y725170D01*
X6204458Y730250D01*
X6194043Y730250D01*
X6178550Y725170D01*
X6168136Y714755D01*
X6163056Y699262D01*
X6163056Y621284D01*
X6118352Y621284D02*
G01*
X6061202Y621284D01*
X6092190Y662939D01*
X6076695Y662939D01*
X6066281Y668020D01*
X6061202Y673100D01*
X6055868Y688847D01*
X6055868Y699262D01*
X6061202Y714755D01*
X6071615Y725170D01*
X6087109Y730250D01*
X6102604Y730250D01*
X6118352Y725170D01*
X6123431Y720089D01*
X6128765Y709676D01*
X6071247Y499097D02*
G01*
X6066675Y496811D01*
X6059817Y489953D01*
X6059817Y538467D01*
X663447Y2517139D02*
G01*
X663447Y2439162D01*
X668781Y2423413D01*
X679195Y2413000D01*
X694689Y2407920D01*
X705104Y2407920D01*
X720597Y2413000D01*
X731012Y2423413D01*
X736345Y2439162D01*
X736345Y2517139D01*
X832865Y2517139D02*
G01*
X780795Y2517139D01*
X775715Y2470150D01*
X780795Y2475484D01*
X796544Y2480563D01*
X812037Y2480563D01*
X827786Y2475484D01*
X837945Y2465070D01*
X843279Y2449576D01*
X843279Y2439162D01*
X837945Y2423413D01*
X827786Y2413000D01*
X812037Y2407920D01*
X796544Y2407920D01*
X780795Y2413000D01*
X775715Y2418334D01*
X770636Y2428747D01*
D11*
X139697Y1525778D02*
G01*
X139697Y1331976D01*
X268983Y1525778D02*
G01*
X268983Y1331976D01*
X139697Y1433576D02*
G01*
X268983Y1433576D01*
X329943Y1525778D02*
G01*
X376171Y1331976D01*
X422399Y1525778D02*
G01*
X376171Y1331976D01*
X422399Y1525778D02*
G01*
X468627Y1331976D01*
X514601Y1525778D02*
G01*
X468627Y1331976D01*
X575561Y1415034D02*
G01*
X741931Y1415034D01*
X821433Y1525778D02*
G01*
X923033Y1525778D01*
X867407Y1451863D01*
X895347Y1451863D01*
X913635Y1442720D01*
X923033Y1433576D01*
X932177Y1405889D01*
X932177Y1387347D01*
X923033Y1359662D01*
X904491Y1341120D01*
X876805Y1331976D01*
X849119Y1331976D01*
X821433Y1341120D01*
X812035Y1350263D01*
X802891Y1368805D01*
X1122423Y1525778D02*
G01*
X1029967Y1331976D01*
X993137Y1525778D02*
G01*
X1122423Y1525778D01*
X1201925Y1525778D02*
G01*
X1303525Y1525778D01*
X1248153Y1451863D01*
X1275839Y1451863D01*
X1294127Y1442720D01*
X1303525Y1433576D01*
X1312669Y1405889D01*
X1312669Y1387347D01*
X1303525Y1359662D01*
X1284983Y1341120D01*
X1257297Y1331976D01*
X1229611Y1331976D01*
X1201925Y1341120D01*
X1192527Y1350263D01*
X1183383Y1368805D01*
X-365252Y2275586D02*
G01*
X-328421Y2178557D01*
X-291337Y2275586D02*
G01*
X-328421Y2178557D01*
X-260857Y2275586D02*
G01*
X-260857Y2178557D01*
X-230378Y2275586D02*
G01*
X-230378Y2178557D01*
X-230378Y2275586D02*
G01*
X-165862Y2178557D01*
X-165862Y2275586D02*
G01*
X-165862Y2178557D01*
X-93726Y2261615D02*
G01*
X-93726Y2178557D01*
X-135381Y2219960D02*
G01*
X-52070Y2219960D01*
X-365252Y853186D02*
G01*
X-328421Y756157D01*
X-291337Y853186D02*
G01*
X-328421Y756157D01*
X-260857Y853186D02*
G01*
X-260857Y756157D01*
X-230378Y853186D02*
G01*
X-230378Y756157D01*
X-230378Y853186D02*
G01*
X-165862Y756157D01*
X-165862Y853186D02*
G01*
X-165862Y756157D01*
X-135381Y797560D02*
G01*
X-52070Y797560D01*
X1765300Y2515615D02*
G01*
X1802129Y2418587D01*
X1839213Y2515615D02*
G01*
X1802129Y2418587D01*
X1897379Y2515615D02*
G01*
X1888236Y2510789D01*
X1878837Y2501645D01*
X1874265Y2492502D01*
X1869694Y2478531D01*
X1869694Y2455418D01*
X1874265Y2441702D01*
X1878837Y2432304D01*
X1888236Y2423160D01*
X1897379Y2418587D01*
X1915921Y2418587D01*
X1925065Y2423160D01*
X1934209Y2432304D01*
X1939036Y2441702D01*
X1943608Y2455418D01*
X1943608Y2478531D01*
X1939036Y2492502D01*
X1934209Y2501645D01*
X1925065Y2510789D01*
X1915921Y2515615D01*
X1897379Y2515615D01*
X1974088Y2515615D02*
G01*
X1974088Y2446273D01*
X1978659Y2432304D01*
X1987804Y2423160D01*
X2001774Y2418587D01*
X2010918Y2418587D01*
X2024888Y2423160D01*
X2034031Y2432304D01*
X2038604Y2446273D01*
X2038604Y2515615D01*
X2101595Y2515615D02*
G01*
X2101595Y2418587D01*
X2069084Y2515615D02*
G01*
X2133854Y2515615D01*
X2205990Y2501645D02*
G01*
X2205990Y2418587D01*
X2164334Y2459989D02*
G01*
X2247391Y2459989D01*
X1930400Y851915D02*
G01*
X1967229Y754887D01*
X2004313Y851915D02*
G01*
X1967229Y754887D01*
X2062479Y851915D02*
G01*
X2053336Y847089D01*
X2043938Y837945D01*
X2039365Y828802D01*
X2034793Y814831D01*
X2034793Y791718D01*
X2039365Y778002D01*
X2043938Y768604D01*
X2053336Y759460D01*
X2062479Y754887D01*
X2081022Y754887D01*
X2090165Y759460D01*
X2099309Y768604D01*
X2104136Y778002D01*
X2108708Y791718D01*
X2108708Y814831D01*
X2104136Y828802D01*
X2099309Y837945D01*
X2090165Y847089D01*
X2081022Y851915D01*
X2062479Y851915D01*
X2139188Y851915D02*
G01*
X2139188Y782573D01*
X2143759Y768604D01*
X2152904Y759460D01*
X2166874Y754887D01*
X2176018Y754887D01*
X2189988Y759460D01*
X2199131Y768604D01*
X2203704Y782573D01*
X2203704Y851915D01*
X2266695Y851915D02*
G01*
X2266695Y754887D01*
X2234184Y851915D02*
G01*
X2298954Y851915D01*
X2329434Y796289D02*
G01*
X2412491Y796289D01*
X1514342Y1208786D02*
G01*
X1514342Y1111757D01*
X1514342Y1208786D02*
G01*
X1555998Y1208786D01*
X1569714Y1203960D01*
X1574286Y1199387D01*
X1579112Y1190244D01*
X1579112Y1181100D01*
X1574286Y1171702D01*
X1569714Y1167129D01*
X1555998Y1162557D01*
X1514342Y1162557D02*
G01*
X1555998Y1162557D01*
X1569714Y1157986D01*
X1574286Y1153160D01*
X1579112Y1144015D01*
X1579112Y1130300D01*
X1574286Y1120902D01*
X1569714Y1116329D01*
X1555998Y1111757D01*
X1514342Y1111757D01*
X1609592Y1153160D02*
G01*
X1692650Y1153160D01*
X1514345Y1919986D02*
G01*
X1514345Y1822957D01*
X1514345Y1919986D02*
G01*
X1556001Y1919986D01*
X1569717Y1915160D01*
X1574289Y1910587D01*
X1579115Y1901444D01*
X1579115Y1892300D01*
X1574289Y1882902D01*
X1569717Y1878329D01*
X1556001Y1873757D01*
X1514345Y1873757D02*
G01*
X1556001Y1873757D01*
X1569717Y1869186D01*
X1574289Y1864360D01*
X1579115Y1855215D01*
X1579115Y1841500D01*
X1574289Y1832102D01*
X1569717Y1827529D01*
X1556001Y1822957D01*
X1514345Y1822957D01*
X1650997Y1906015D02*
G01*
X1650997Y1822957D01*
X1609595Y1864360D02*
G01*
X1692653Y1864360D01*
D10*
X2324100Y2858515D02*
G01*
X2324100Y2749550D01*
X2396743Y2858515D02*
G01*
X2396743Y2749550D01*
X2324100Y2806700D02*
G01*
X2396743Y2806700D01*
X2431034Y2837687D02*
G01*
X2441447Y2843021D01*
X2457195Y2858515D01*
X2457195Y2749550D01*
D12*
X697293Y95999D02*
G01*
X5802693Y95999D01*
X697293Y603999D02*
G01*
X5802693Y603999D01*
X5802693Y603999D02*
G01*
X5802693Y95999D01*
X697293Y603999D02*
G01*
X697293Y95999D01*
X6444627Y116319D02*
G01*
X5860427Y116319D01*
X5860427Y116319D02*
G01*
X5860427Y565899D01*
X5860427Y565899D02*
G01*
X6444627Y565899D01*
X6444627Y565899D02*
G01*
X6444627Y116319D01*
D13*
X1807331Y1525270D02*
G01*
X1807331Y1753870D01*
X1768342Y1474470D02*
G01*
X1844542Y1474470D01*
X1806442Y1474470D01*
X1806442Y1271270D01*
X1895342Y1525270D02*
G01*
X1717542Y1525270D01*
X-631952Y2376167D02*
G01*
X2111242Y2376167D01*
X2111242Y2172967D01*
X2111240Y2172967D01*
X1958842Y2020570D01*
X1958842Y1004570D01*
X1958845Y1004570D01*
X2111242Y852172D01*
X2111242Y648972D01*
X-631952Y648972D01*
X-631952Y2376167D01*
X-746252Y1931670D02*
G01*
X3047Y1931670D01*
X3047Y1093470D01*
X-746252Y1093470D01*
X-746252Y1931670D01*
D12*
X1745995Y2926994D02*
G01*
X2253995Y2926994D01*
X2253995Y2672994D01*
X1745995Y2672994D01*
X1745995Y2926994D01*
M02*
